<?xml version="1.0" encoding="UTF-8"?>
<svg width="78px" height="34px" viewBox="0 0 78 34" version="1.1" xmlns="http://www.w3.org/2000/svg" xmlns:xlink="http://www.w3.org/1999/xlink">
    <!-- Generator: Sketch 40 (33762) - http://www.bohemiancoding.com/sketch -->
    <g id="Page-1" stroke="none" stroke-width="1" fill="none" fill-rule="evenodd">
        <g id="首页（色条，老logo）" transform="translate(-23.000000, -691.000000)">
            <g id="Group-10" transform="translate(23.000000, 691.000000)">
                <path d="M63.0054443,33.6184672 L6.01409672,33.6184672 C2.70642108,33.6184672 -5.34876399e-05,30.9309976 -5.34876399e-05,27.6462241 L-5.34876399e-05,6.23782954 C-5.34876399e-05,2.95305602 2.70642108,0.265586475 6.01409672,0.265586475 L63.0054443,0.265586475 C66.3131199,0.265586475 69.0193271,2.95305602 69.0193271,6.23782954 L69.0193271,27.6462241 C69.0193271,30.9309976 66.3131199,33.6184672 63.0054443,33.6184672" id="Fill-1" fill="#4A4A4A"></path>
                <polygon id="Fill-4" fill="#4A4A4A" points="77.8601921 31.4188269 53.1226936 16.9419737 77.8601921 2.46512054"></polygon>
                <polygon id="Fill-7" fill="#FFFFFF" points="11.6069935 7.91822821 11.6069935 23.2129899 19.0378296 23.2129899 19.0378296 24.9191453 6.3614782 24.9191453 6.3614782 7.91822821"></polygon>
                <polygon id="Fill-9" fill="#FFFFFF" points="20.1637225 24.919095 25.4090186 24.919095 25.4090186 7.91817789 20.1637225 7.91817789"></polygon>
                <polygon id="Fill-11" fill="#FFFFFF" points="41.5821464 7.91822821 36.3368503 24.9191453 31.6345414 24.9191453 26.8397253 7.91822821 32.1378514 7.91822821 35.7142892 20.7965443 39.6219559 7.91822821"></polygon>
                <polygon id="Fill-12" fill="#FFFFFF" points="54.669125 7.91822821 54.669125 9.62463529 48.1916403 9.62463529 48.1916403 14.7685141 53.6355421 14.7685141 53.6355421 16.4749212 48.1916403 16.4749212 48.1916403 23.2129899 55.7682522 23.2129899 55.7682522 24.9191453 42.9463442 24.9191453 42.9463442 7.91822821"></polygon>
                <text id="+" font-family="FZLTZHK--GBK1-0, FZLanTingHei-DB-GBK" font-size="14" font-weight="normal" fill="#F7F7F7">
                    <tspan x="57" y="17">+</tspan>
                </text>
            </g>
        </g>
    </g>
</svg>