<?xml version="1.0" encoding="UTF-8"?>
<svg width="32px" height="32px" viewBox="0 0 32 32" version="1.1" xmlns="http://www.w3.org/2000/svg" xmlns:xlink="http://www.w3.org/1999/xlink">
    <!-- Generator: Sketch 40 (33762) - http://www.bohemiancoding.com/sketch -->
    <title>Page 1 Copy 3</title>
    <desc>Created with Sketch.</desc>
    <defs></defs>
    <g id="Page-1" stroke="none" stroke-width="1" fill="none" fill-rule="evenodd">
        <g id="首页（色条，老logo）" transform="translate(-581.000000, -139.000000)">
            <g id="Page-1-Copy-3" transform="translate(581.000000, 139.000000)">
                <path d="M6.21873171,26.7251122 C8.89529756,29.1619122 12.3639415,30.5038049 15.9843902,30.5038049 C19.6040585,30.5038049 23.0742634,29.1603122 25.7532488,26.7226927 L25.9218732,26.5700683 L25.8419512,26.3566439 C24.3226537,22.2343024 20.3608976,19.4657951 15.9843902,19.4657951 C11.6094439,19.4657951 7.64854634,22.2359024 6.12760976,26.3582439 L6.05010732,26.5708488 L6.21873171,26.7251122 Z M15.9843902,31.9687805 C7.17061463,31.9687805 0,24.7981659 0,15.9843902 C0,7.17061463 7.17061463,0 15.9843902,0 C24.7981659,0 31.9687805,7.17061463 31.9687805,15.9843902 C31.9687805,24.7981659 24.7981659,31.9687805 15.9843902,31.9687805 L15.9843902,31.9687805 Z" id="Fill-1" fill="#D2D2D2"></path>
                <path d="M15.863479,7 C12.629942,7 10,9.63095477 10,12.8644917 C10,16.0969653 12.6310054,18.7269073 15.863479,18.7269073 C19.0959525,18.7269073 21.7279707,16.0969653 21.7279707,12.8644917 C21.726958,9.63095477 19.0959525,7 15.863479,7" id="Fill-3" fill="#FFFFFF"></path>
            </g>
        </g>
    </g>
</svg>