<svg xmlns="http://www.w3.org/2000/svg" width="316" height="304" viewBox="0 0 316 304"><path d="M140 281.388c-28.707-2.92-60.24-3.478-84.232-21.558-8.777-7.098-13.488-17.594-17.08-28.01-7.435 1.435-24.087 4.651-11.555-6.485 12.55-8.992 3.378-23.982 4.374-36.57-1.294-35.167-4.203-71.165 4.455-105.661 5.412-23.31 23.024-42.911 45.88-50.277 43.42-14.68 90.14-12.375 135.24-10.02 28.567 3.013 61.01 12.295 75.3 39.62 12.677 25.379 6.778 54.643 9.531 81.858 1.285 30.412 7.201 61.944-2.165 91.65-6.964 21.233-29.638 29.768-48.761 36.789-22.543 8.373-46.725 9.074-70.487 8.745-13.499.052-27.004.246-40.5-.081zm70.144-2.433c26.27-3.458 53.51-10.006 75.16-25.97 18.457-16.857 17.908-44.194 17.138-67.277-3.081-32.698-2.79-65.587-5.143-98.316-1.799-24.601-19.806-45.911-42.924-53.677-33.141-11.93-69.061-10.667-103.76-10.08-26.565 1.463-54.077 4.27-78.293 16.016C49.247 51.01 36.997 76.263 34.6 100.948c-2.785 30.61-2.673 61.53-.609 92.183.813 12.165 7.166 26.488-5.7 34.589-4.459 7.745 12.565-1.927 13.175 4.201 4.468 14.647 13.644 28.798 28.798 33.931 39.445 15.32 82.713 13.847 124.312 13.814 5.193-.129 10.393-.24 15.568-.711z"/></svg>