<?xml version="1.0" encoding="UTF-8" standalone="no"?>
<!-- Created with Inkscape (http://www.inkscape.org/) -->

<svg
   xmlns:dc="http://purl.org/dc/elements/1.1/"
   xmlns:cc="http://creativecommons.org/ns#"
   xmlns:rdf="http://www.w3.org/1999/02/22-rdf-syntax-ns#"
   xmlns:svg="http://www.w3.org/2000/svg"
   xmlns="http://www.w3.org/2000/svg"
   xmlns:sodipodi="http://sodipodi.sourceforge.net/DTD/sodipodi-0.dtd"
   xmlns:inkscape="http://www.inkscape.org/namespaces/inkscape"
   id="svg3479"
   version="1.1"
   inkscape:version="0.91 r13725"
   width="316"
   height="304"
   viewBox="0 0 316 304"
   sodipodi:docname="duihua_03.svg">
  <metadata
     id="metadata3485">
    <rdf:RDF>
      <cc:Work
         rdf:about="">
        <dc:format>image/svg+xml</dc:format>
        <dc:type
           rdf:resource="http://purl.org/dc/dcmitype/StillImage" />
        <dc:title></dc:title>
      </cc:Work>
    </rdf:RDF>
  </metadata>
  <defs
     id="defs3483" />
  <sodipodi:namedview
     pagecolor="#ffffff"
     bordercolor="#666666"
     borderopacity="1"
     objecttolerance="10"
     gridtolerance="10"
     guidetolerance="10"
     inkscape:pageopacity="0"
     inkscape:pageshadow="2"
     inkscape:window-width="1008"
     inkscape:window-height="731"
     id="namedview3481"
     showgrid="false"
     inkscape:zoom="0.77631579"
     inkscape:cx="158"
     inkscape:cy="152"
     inkscape:window-x="74"
     inkscape:window-y="127"
     inkscape:window-maximized="0"
     inkscape:current-layer="svg3479" />
  <path
     style="fill:#000000"
     d="m 140,281.38788 c -28.70731,-2.91931 -60.239998,-3.47794 -84.231738,-21.55838 -8.777548,-7.09797 -13.488067,-17.59308 -17.079579,-28.0099 -7.435747,1.43495 -24.087793,4.65172 -11.55552,-6.48479 12.550415,-8.99188 3.377795,-23.98179 4.373353,-36.57018 C 30.213215,153.59825 27.303906,117.59955 35.962107,83.103849 41.373554,59.793976 58.985991,40.192513 81.84135,32.826695 125.2613,18.147013 171.98241,20.452351 217.08144,22.806407 c 28.56776,3.013527 61.01032,12.295584 75.30098,39.620301 12.67611,25.378884 6.77792,54.643642 9.53074,81.857842 1.28452,30.41251 7.20101,61.94479 -2.16493,91.65038 -6.96428,21.23354 -29.63863,29.76809 -48.76137,36.78874 -22.54292,8.37335 -46.72443,9.07457 -70.48686,8.74579 -13.499,0.0517 -27.00401,0.24589 -40.5,-0.0816 z m 70.14405,-2.43309 c 26.26974,-3.45766 53.51042,-10.00625 75.15929,-25.97057 18.45731,-16.85668 17.90892,-44.19288 17.13874,-67.27647 C 299.36083,153.01021 299.6524,120.12131 297.299,87.392362 295.50045,62.790991 277.49298,41.480549 254.37453,33.71477 221.23379,21.785138 185.31401,23.047938 150.61501,23.634774 124.04958,25.098024 96.537808,27.90514 72.322208,39.651287 49.247436,51.009552 36.997073,76.262622 34.600292,100.94825 c -2.784898,30.6092 -2.673309,61.52897 -0.609254,92.18295 0.81313,12.16503 7.166407,26.48822 -5.700065,34.58843 -4.458508,7.74495 12.565057,-1.92617 13.175163,4.20146 4.468105,14.64724 13.643986,28.79839 28.7974,33.93111 39.445614,15.31977 82.713274,13.84683 124.312774,13.81386 5.19256,-0.12875 10.39244,-0.23937 15.56774,-0.71127 z"
     id="path3489"
     inkscape:connector-curvature="0" />
</svg>
