<?xml version="1.0" standalone="no"?><!DOCTYPE svg PUBLIC "-//W3C//DTD SVG 1.1//EN" "http://www.w3.org/Graphics/SVG/1.1/DTD/svg11.dtd"><svg t="1494209292561" class="icon" style="" viewBox="0 0 1024 1024" version="1.1" xmlns="http://www.w3.org/2000/svg" p-id="1019" xmlns:xlink="http://www.w3.org/1999/xlink" width="200" height="200"><defs><style type="text/css"></style></defs><path d="M706.944 498.24 448.064 348.8c-13.632-7.936-31.04-8.448-45.696 0C387.648 357.248 379.52 372.608 379.52 388.416l0 298.88c0 15.808 8.128 31.104 22.848 39.552 14.656 8.512 32.064 8 45.696 0l258.88-149.44c13.632-7.872 22.848-22.656 22.848-39.616C729.792 520.896 720.576 506.112 706.944 498.24z" p-id="1020" fill="#ffffff"></path><path d="M512 1024c-282.304 0-512-229.696-512-512s229.696-512 512-512 512 229.696 512 512S794.304 1024 512 1024zM512 60.224C262.848 60.224 60.224 262.848 60.224 512S262.848 963.776 512 963.776 963.776 761.152 963.776 512 761.152 60.224 512 60.224z" p-id="1021" fill="#ffffff"></path></svg>