<?xml version="1.0" encoding="UTF-8"?>
<svg width="230px" height="229px" viewBox="0 0 230 229" version="1.1" xmlns="http://www.w3.org/2000/svg" xmlns:xlink="http://www.w3.org/1999/xlink">
    <!-- Generator: Sketch 40 (33762) - http://www.bohemiancoding.com/sketch -->
    <title>袋鼠</title>
    <desc>Created with Sketch.</desc>
    <defs>
        <path d="M49.3076923,2.14857143 C49.3076923,2.14857143 46.5104895,-1.20857143 44.2727273,0.47 C42.034965,2.14857143 38.6783217,9.98190476 37,14.4580952 C40.9160839,17.2557143 42.034965,16.6961905 42.034965,16.6961905 L49.3076923,2.14857143 Z" id="path-1"></path>
        <path d="M24.9265527,12.2261905 C24.9265527,12.2261905 37.4825175,9.78250279 41.958042,10.547619 C46.4335664,11.3127353 46.993007,12.2261905 46.993007,12.2261905 C46.993007,12.2261905 50.3496503,35.1666667 49.7902098,47.4761905 C49.2307692,59.7857143 43.0769231,86.6428571 43.0769231,86.6428571 C43.0769231,86.6428571 26.2937063,91.6785714 16.2237762,88.3214286 C6.15384615,84.9642857 3.4592541e-16,80.0714286 0,70 C0,59.9285714 2.7972028,44.1190476 6.15384615,44.1190476 C7.75743901,44.1190476 9.88749466,35.603096 14,28 C18.495798,19.6882822 24.9265527,12.2261905 24.9265527,12.2261905 Z" id="path-2"></path>
        <rect id="path-3" x="3.55271368e-15" y="0" width="39.6566524" height="100.609649" rx="19.8283262"></rect>
        <mask id="mask-4" maskContentUnits="userSpaceOnUse" maskUnits="objectBoundingBox" x="0" y="0" width="39.6566524" height="100.609649" fill="white">
            <use xlink:href="#path-3"></use>
        </mask>
    </defs>
    <g id="Symbols" stroke="none" stroke-width="1" fill="none" fill-rule="evenodd">
        <g id="袋鼠">
            <g id="Group" transform="translate(6.000000, 3.000000)">
                <path d="M102.706897,29.4425428 L74.862069,0 C74.862069,0 69.9482759,29.4425428 94.5172414,32.1687042" id="Path-2" fill="#FEC882"></path>
                <text id="FEE082" font-family="FZLTHK--GBK1-0, FZLanTingHei-R-GBK" font-size="13" font-weight="normal" fill="#000000">
                    <tspan x="92.40625" y="116">FEE082</tspan>
                </text>
                <path d="M102.706897,29.4425428 C102.706897,29.4425428 95.9129345,23.1374557 92,19 C86.6313253,13.3232748 74.862069,0 74.862069,0 C74.862069,0 69.9482759,29.4425428 94.5172414,32.1687042" id="Path-2" stroke="#323232" stroke-width="3" stroke-linecap="round" stroke-linejoin="round"></path>
                <path d="M163.900606,142.271171 C163.900606,142.271171 166.630491,128.640365 174.820147,129.730829 C177.004055,139.54501 178.641986,152.630585 178.641986,152.630585 L164.99256,166.806624 L163.900606,142.271171 Z" id="Path-6" stroke="#323232" stroke-width="4" fill="#FEC882" transform="translate(171.271296, 148.237674) rotate(-6.000000) translate(-171.271296, -148.237674) "></path>
                <text id="FEE082" font-family="FZLTHK--GBK1-0, FZLanTingHei-R-GBK" font-size="13" font-weight="normal" fill="#000000">
                    <tspan x="92.40625" y="116">FEE082</tspan>
                </text>
                <path d="M148.568966,44.1638142 C148.568966,44.1638142 136.097701,41.0146699 123,37 C109.902299,32.9853301 53.0229885,13.0855746 53.0229885,13.0855746 C53.0229885,13.0855746 57.3908046,32.1687042 73.7701149,35.9853301 C71.0402299,37.6210269 26,83.4205379 26,129.220049 C26,175.01956 59,222.454768 119.086207,222.454768 C179.172414,222.454768 220,170.440098 220,129.220049 C220,88 204,44.1638142 131.097701,25.6259169 C152.390805,35.9853301 177.626437,47.1026895 188,76 C198.373563,104.897311 186.241379,141.215159 157.850575,159.207824 C167.678161,116.679707 142.563218,102.503667 142.563218,102.503667 C142.563218,102.503667 104.344828,107.95599 95.0632184,122.677262 C82.5057471,107.95599 81.4137931,86.6919315 93.9712644,65.4278729 C110.350575,75.2420538 134.373563,78.5134474 152.936782,63.2469438 C171.5,47.9804401 148.568966,44.1638142 148.568966,44.1638142 Z" id="Path-3" stroke="#323232" stroke-width="4" stroke-linecap="round" stroke-linejoin="round" fill="#FEC882"></path>
                <path d="M100,117.183594 C100,117.183594 120,102.183594 144,104.183594 C155,113.183594 160,123.183594 160,140.183594 C160,157.183594 155,161.183594 155,161.183594 L118,163.183594 L100,117.183594 Z" id="Path-23" stroke="#323232" stroke-width="4" fill="#FFF6E3"></path>
                <path d="M112.87069,60 C112.87069,60 113.073248,73 131.87069,73" id="Path-22" stroke="#323232" stroke-width="3" stroke-linecap="round" stroke-linejoin="round"></path>
                <g id="Group-3" transform="translate(0.000000, 57.000000)" stroke="#323232" stroke-width="3">
                    <g id="Path-18">
                        <use fill="#D8D8D8" fill-rule="evenodd" xlink:href="#path-1"></use>
                        <use xlink:href="#path-1"></use>
                    </g>
                    <g id="Path-16">
                        <use fill="#D8D8D8" fill-rule="evenodd" xlink:href="#path-2"></use>
                        <use xlink:href="#path-2"></use>
                    </g>
                    <path d="M46.0307692,21.3029101 C46.5902098,21.3029101 54.4223776,16.8267196 58.3384615,19.0648148 C62.2545455,21.3029101 65.6111888,25.2195767 65.6111888,25.2195767 L70.6461538,62.707672 L79.5972028,60.4695767 L74.5622378,24.1005291 C74.5622378,24.1005291 69.5272727,14.5886243 61.1356643,11.7910053 C52.7440559,8.99338624 46.5902098,11.7910053 46.5902098,11.7910053 C46.5902098,11.7910053 45.4713287,21.3029101 46.0307692,21.3029101 Z" id="Path-17" fill="#D8D8D8"></path>
                    <path d="M25,13 C25,13 31,16 29,28 C27,40 23,55 23,55 C23,55 13,52 8,46" id="Path-19" stroke-linecap="round" stroke-linejoin="round"></path>
                    <path d="M33,13 C33,13 39,16 39,23 C39,30 38,49 38,49" id="Path-20" stroke-linecap="round" stroke-linejoin="round"></path>
                    <path d="M22,55 L35.5,55 C42.5,55 49,52 49,52" id="Path-21" stroke-linecap="round" stroke-linejoin="round"></path>
                </g>
                <rect id="Rectangle" fill="#FEA3A3" x="80" y="47" width="19" height="19" rx="8"></rect>
                <path d="M81.902974,101.943379 C77.4784166,100.040952 70.0617903,97.5805733 70.0617903,102.465456 C70.0617903,107.179954 77.8911571,111.438333 82.9452045,113.696085 C83.8787699,119.489278 85.5493911,124.896825 88.4666178,128.011199 C105.295572,109.208976 120.968869,106.817915 120.968869,106.817915 C120.968869,106.817915 96.8619396,98.1729385 101.269693,81.3554401 C112.785208,78.0771144 119.37172,71.5698075 121.027811,62.8906299 C105.183613,67.4026566 102.931605,68.3377652 102.931605,68.3377652 C102.931605,68.3377652 108.421831,61.8227424 105.695638,50.9801376 C98.5904157,56.9857569 88.544554,69.9290664 88.544554,69.9290664 C88.544554,69.9290664 80.931008,70.5749757 77.116648,69.9423694 C72.3896035,69.1583955 62.9203405,65.6793257 62.9203405,65.6793257 C62.9203405,65.6793257 57.0416709,65.7085529 62.0488097,76.6435722 C67.0559485,87.5785914 82.1135957,89.5503082 82.1135957,89.5503082 C82.1135957,89.5503082 81.6900204,95.0041844 81.902974,101.943379 Z" id="Combined-Shape" stroke="#323232" stroke-width="3" fill="#FFBAD0"></path>
                <path d="M84,78 C84,78 85,75 88,76 C91,77 89,80 89,80" id="Path-15" stroke="#323232" stroke-width="3" stroke-linecap="round" stroke-linejoin="round"></path>
                <rect id="Rectangle" fill="#FC8989" x="86" y="83" width="7" height="6.93264446" rx="3.46632223"></rect>
                <path d="M68,68 C68,68 69,75 63,76 C60,72 60,71 61,68 C62,65 68,68 68,68 Z" id="Path-14" fill="#323232"></path>
                <path d="M68.8563218,123.767726 C68.8563218,123.767726 102.448276,104.188264 109,120 C110.637931,128.178484 99,134 99,134 L74,144" id="Path-4" fill="#FEC882"></path>
                <path d="M69.9482759,123.222494 C69.9482759,123.222494 102.448276,105.410758 109,121.222494 C109,134 78,140 78,140" id="Path-4" stroke="#323232" stroke-width="5" stroke-linecap="round" stroke-linejoin="round"></path>
                <path d="M68,152.45837 C68,152.45837 115,121 134,133 C153,145 147.477011,159.753056 147.477011,164.660147 C148.568966,151.02934 149.66092,145.031785 160.58046,140.669927 C161.672414,148.307688 166.586207,157.026895 166.586207,157.026895 L158.396552,168.476773 L128.913793,173.929095 L68,152.45837 Z" id="Path-5" fill="#FEC882"></path>
                <path d="M74,173 C74,173 86,129 118,129 C150,129 147.477011,159.207824 147.477011,164.114914 C148.568966,150.484108 149.66092,144.486553 160.58046,140.124694 C163.856322,148.252063 168,163 168,163" id="Path-5" stroke="#323232" stroke-width="5" stroke-linecap="round" stroke-linejoin="round"></path>
                <path d="M125.091954,101.958435 C125.091954,101.958435 120.178161,121.041565 127.821839,123.767726 C135.465517,126.493888 140.37931,110.682152 140.925287,106.320293 C141.471264,101.958435 140.37931,95.4156479 134.373563,94.3251834 C128.367816,93.2347188 125.091954,101.958435 125.091954,101.958435 Z" id="Path-7" stroke="#323232" stroke-width="5" fill="#FEC882"></path>
                <path d="M149.66092,44.1638142 C149.66092,44.1638142 143.109195,56.7041565 152.390805,62.7017115 C156.758621,59.9755501 160.034483,56.7041565 160.034483,52.3422983 C160.034483,47.9804401 149.66092,44.1638142 149.66092,44.1638142 Z" id="Path-9" fill="#323232"></path>
                <path d="M102.614943,41.8924205 C102.614943,41.8924205 101.522989,45.7090465 105.344828,46.799511 C109.166667,47.8899756 110.258621,43.5281174 110.258621,43.5281174" id="Path-10" stroke="#323232" stroke-width="4" stroke-linecap="round" stroke-linejoin="round"></path>
            </g>
            <g id="Group-2" transform="translate(21.000000, 115.000000)">
                <use id="Rectangle-2" stroke="#323232" mask="url(#mask-4)" stroke-width="8" fill="#BAE4FF" xlink:href="#path-3"></use>
                <path d="M20.984375,36.8046875 C21.3476581,36.7929687 21.6230459,36.7753907 21.8105469,36.7519531 L23.7441406,36.5585938 C24.3417999,36.5234373 25.0039026,36.5058594 25.7304688,36.5058594 C27.3007891,36.529297 28.4140592,36.6054681 29.0703125,36.734375 C29.7265658,36.8632819 30.1074213,36.9218751 30.2128906,36.9101563 C30.3886728,36.9101563 30.661131,36.8310555 31.0302734,36.6728516 C31.3994159,36.5146476 31.70703,36.4296876 31.953125,36.4179688 C32.5507842,36.4179688 33.0107406,36.5820296 33.3330078,36.9101563 C33.655275,37.2382829 33.8515621,37.5224597 33.921875,37.7626953 C33.9921879,38.0029309 34.0302734,38.1874994 34.0361328,38.3164063 C34.0419922,38.4453131 34.009766,38.6386706 33.9394531,38.8964844 C33.7753898,39.4472684 33.6728518,39.8164053 33.6318359,40.0039063 C33.5908201,40.1914072 33.5498049,40.6103483 33.5087891,41.2607422 C33.4677732,41.9111361 33.4326173,42.7490183 33.4033203,43.7744141 C33.3740233,44.7998098 33.2656259,45.4882795 33.078125,45.8398438 C32.8906241,46.191408 32.6123065,46.4726552 32.2431641,46.6835938 C31.8740216,46.8945323 31.4492212,46.8652357 30.96875,46.5957031 L30.5117188,46.3496094 C29.6328081,45.880857 27.9921995,45.6464844 25.5898438,45.6464844 C23.6210839,45.6582032 22.3906275,45.7871081 21.8984375,46.0332031 L21.0019531,46.4902344 C20.8144522,46.5957037 20.4599635,46.6455078 19.9384766,46.6396484 C19.4169896,46.633789 19.0712899,46.4257833 18.9013672,46.015625 C18.7314445,45.6054667 18.6318361,45.2041035 18.6025391,44.8115234 C18.573242,44.4189433 18.5585938,44.0527361 18.5585938,43.7128906 L18.5410156,41.4980469 C18.5292968,40.9472629 18.5175782,40.5195328 18.5058594,40.2148438 L18.4179688,39.125 C18.3945311,38.8671862 18.3710939,38.6796881 18.3476562,38.5625 L18.1894531,37.9296875 L18.1367188,38.1230469 C17.9726554,38.6972685 17.7089862,38.984375 17.3457031,38.984375 C17.2050774,38.9960938 17.0410166,38.94336 16.8535156,38.8261719 L15.921875,38.2460938 C15.6874988,38.1289057 15.5380863,38.0439456 15.4736328,37.9912109 C15.4091794,37.9384763 15.3681642,37.9531246 15.3505859,38.0351563 C15.3330077,38.1171879 15.3212891,38.1874997 15.3154297,38.2460938 C15.3095703,38.3046878 15.3124999,38.3691403 15.3242188,38.4394531 C15.3242188,38.5566412 15.3330077,38.7939435 15.3505859,39.1513672 C15.3681642,39.5087908 15.3886718,40.1767529 15.4121094,41.1552734 C15.435547,42.133794 15.4648436,42.9482389 15.5,43.5986328 C15.5351564,44.2490267 15.5527344,44.6972644 15.5527344,44.9433594 C15.5410156,45.2246108 15.494141,45.5117173 15.4121094,45.8046875 C15.3300777,46.0976577 15.1162127,46.3789049 14.7705078,46.6484375 C14.424803,46.9179701 14.0292991,47.0585937 13.5839844,47.0703125 C13.1386696,47.0820313 12.8222666,47.0175788 12.6347656,46.8769531 C12.4472647,46.7363274 12.3271487,46.5634776 12.2744141,46.3583984 C12.2216794,46.1533193 12.1923828,45.9482432 12.1865234,45.7431641 C12.180664,45.5380849 12.198242,45.1572293 12.2392578,44.6005859 C12.2802736,44.0439425 12.3124999,43.4902371 12.3359375,42.9394531 L12.4238281,40.6542969 L12.4589844,39.5117188 C12.4707032,39.1132793 12.4736328,38.8847659 12.4677734,38.8261719 C12.461914,38.7675778 12.4501954,38.6562508 12.4326172,38.4921875 C12.415039,38.3281242 12.3828127,38.2460938 12.3359375,38.2460938 C12.3007811,38.2578126 12.2392583,38.3134761 12.1513672,38.4130859 C12.0634761,38.5126958 11.9316415,38.6328118 11.7558594,38.7734375 L9.9453125,40.25 C9.52343539,40.5664078 8.90527751,40.9472634 8.09082031,41.3925781 C7.27636312,41.8378929 6.50000369,42.0546876 5.76171875,42.0429688 C4.81249525,42.0429688 4.16797045,41.7910181 3.828125,41.2871094 C3.48827955,40.7832006 3.31542972,40.4785162 3.30957031,40.3730469 C3.30371091,40.2675776 3.30078125,40.1738285 3.30078125,40.0917969 C3.30078125,39.9863276 3.3183592,39.9101565 3.35351562,39.8632813 C3.38867205,39.816406 3.61425573,39.7548832 4.03027344,39.6787109 C4.44629114,39.6025387 5.24901749,39.3388694 6.43847656,38.8876953 C7.62793563,38.4365212 8.89940729,37.7656295 10.2529297,36.875 C11.6064521,35.9843705 12.4882792,35.2460967 12.8984375,34.6601563 C13.3085958,34.0742158 13.5751947,33.6494154 13.6982422,33.3857422 C13.8212897,33.122069 13.5722687,32.9960937 12.9511719,33.0078125 L12.2304688,33.0253906 L10.6835938,33.1660156 C10.1093721,33.2246097 9.45312869,33.3652333 8.71484375,33.5878906 C7.97655881,33.810548 7.56640666,33.9160157 7.484375,33.9042969 C6.99218504,33.9042969 6.74316409,33.6699242 6.73730469,33.2011719 C6.73144528,32.7324195 6.82226469,32.3164081 7.00976562,31.953125 C7.17382895,31.6249984 7.39941263,31.3466808 7.68652344,31.1181641 C7.97363425,30.8896473 8.26367041,30.7695313 8.55664062,30.7578125 C8.84961084,30.7460937 9.04296828,30.7578123 9.13671875,30.7929688 L9.64648438,31.0390625 C9.74023484,31.0859377 9.89257707,31.1035157 10.1035156,31.0917969 L10.4023438,31.0742188 C10.6015635,31.0742188 11.2812442,31.0712891 12.4414062,31.0654297 C13.6015683,31.0595703 14.3339829,30.9863288 14.6386719,30.8457031 L15.0605469,30.6523438 C15.1542973,30.6171873 15.2890616,30.5996094 15.4648438,30.5996094 C15.6992199,30.623047 16.0566382,30.7841782 16.5371094,31.0830078 C17.0175805,31.3818374 17.2578125,31.8242158 17.2578125,32.4101563 C17.2460937,32.6562512 17.1875005,32.8701163 17.0820312,33.0517578 C16.976562,33.2333993 16.8183604,33.4355458 16.6074219,33.6582031 C16.3964833,33.8808605 16.1533217,34.1533187 15.8779297,34.4755859 C15.6025377,34.7978532 15.4619141,35.0087886 15.4560547,35.1083984 C15.4501953,35.2080083 15.564452,35.3398429 15.7988281,35.5039063 C16.1972676,35.8085953 16.5869122,36.1425763 16.9677734,36.5058594 C17.3486347,36.8691424 17.6445302,37.138671 17.8554688,37.3144531 L18.1542969,37.578125 L18.2421875,37.3320313 C18.2421875,37.3085936 18.3095696,37.2001963 18.4443359,37.0068359 C18.5791022,36.8134756 18.7314445,36.6494147 18.9013672,36.5146484 C19.0712899,36.3798821 19.2968736,36.3125 19.578125,36.3125 C19.7187507,36.3242188 19.8769522,36.3593747 20.0527344,36.4179688 L20.4921875,36.6289063 C20.5976568,36.6875003 20.7617176,36.7460935 20.984375,36.8046875 L20.984375,36.8046875 Z M21.4941406,40.3203125 L22.7070312,40.2675781 L23.8144531,40.2324219 C24.0136729,40.2324219 24.1630854,40.1621101 24.2626953,40.0214844 C24.3623052,39.8808587 24.4121094,39.6171894 24.4121094,39.2304688 C24.4003906,38.8671857 24.3505864,38.5830088 24.2626953,38.3779297 C24.1748042,38.1728505 23.9433612,38.0703125 23.5683594,38.0703125 C22.548823,38.0820313 21.9160169,38.1435541 21.6699219,38.2548828 C21.4238269,38.3662115 21.2539067,38.4921868 21.1601562,38.6328125 C21.0664058,38.7734382 21.0253906,38.9843736 21.0371094,39.265625 C21.0371094,39.7226585 21.0781246,40.0156244 21.1601562,40.1445313 C21.2421879,40.2734381 21.3535149,40.3320313 21.4941406,40.3203125 L21.4941406,40.3203125 Z M21.6875,43.9589844 L22.5664063,43.8710938 L23.65625,43.8183594 C24.0195331,43.8066406 24.2480464,43.7363288 24.3417969,43.6074219 C24.4355473,43.478515 24.4824219,43.1738305 24.4824219,42.6933594 L24.4824219,42.2890625 C24.4824219,42.1249992 24.438477,41.9960942 24.3505859,41.9023438 C24.2626949,41.8085933 24.0781264,41.7617188 23.796875,41.7617188 C22.3203051,41.7734376 21.5087898,41.8818349 21.3623047,42.0869141 C21.2158196,42.2919932 21.1484374,42.5058583 21.1601563,42.7285156 C21.1601563,42.8691413 21.1718749,43.0712877 21.1953125,43.3349609 C21.2187501,43.5986341 21.2919916,43.771484 21.4150391,43.8535156 C21.5380866,43.9355473 21.628906,43.9707032 21.6875,43.9589844 L21.6875,43.9589844 Z M27.1894531,40.0039063 L27.7519531,40.1445313 L29.6328125,40.2324219 C30.089846,40.2558595 30.3798822,40.1796884 30.5029297,40.0039063 C30.6259772,39.8281241 30.6904297,39.5908218 30.6962891,39.2919922 C30.7021485,38.9931626 30.6757815,38.7968755 30.6171875,38.703125 C30.5585935,38.6093745 30.4707037,38.5244144 30.3535156,38.4482422 C30.2363275,38.3720699 29.7382856,38.3164064 28.859375,38.28125 L27.6992188,38.2460938 C27.4296862,38.2460938 27.2626956,38.3398428 27.1982422,38.5273438 C27.1337887,38.7148447 27.1044922,38.9169911 27.1103516,39.1337891 C27.116211,39.350587 27.1425779,39.6406232 27.1894531,40.0039063 L27.1894531,40.0039063 Z M29.5449219,44.046875 C29.720704,44.0351562 29.9052725,43.9736334 30.0986328,43.8623047 C30.2919932,43.750976 30.3916015,43.4492212 30.3974609,42.9570313 C30.4033203,42.4648413 30.3593755,42.1542975 30.265625,42.0253906 C30.1484369,41.8847649 29.9726574,41.8027345 29.7382812,41.7792969 C29.6679684,41.7792969 29.5742193,41.7822265 29.4570312,41.7880859 C29.3398432,41.7939453 28.9941435,41.7939453 28.4199219,41.7880859 C27.8457003,41.7822265 27.5058599,41.7998045 27.4003906,41.8408203 C27.2949213,41.8818361 27.2216799,41.93457 27.1806641,41.9990234 C27.1396482,42.0634769 27.116211,42.1660149 27.1103516,42.3066406 C27.1044922,42.4472663 27.1074218,42.5175781 27.1191406,42.5175781 L27.1367188,43.2910156 C27.1367188,43.7011739 27.6464793,43.9355466 28.6660156,43.9941406 L29.5449219,44.046875 Z M8.13476562,27.9804688 C8.20507848,27.6054669 8.3017572,27.3037121 8.42480469,27.0751953 C8.54785218,26.8466785 8.84374766,26.5917983 9.3125,26.3105469 C9.78125234,26.0292955 10.247068,25.8857422 10.7099609,25.8798828 C11.1728539,25.8740234 11.4921866,25.9296869 11.6679688,26.046875 L12.3183594,26.5039063 C12.5175791,26.6562508 12.9628872,26.8437489 13.6542969,27.0664063 C14.3457066,27.2890636 14.993161,27.4238279 15.5966797,27.4707031 C16.2001983,27.5175784 16.5166014,27.6699206 16.5458984,27.9277344 C16.5751955,28.1855482 16.4257829,28.4199208 16.0976562,28.6308594 C15.4882782,29.0410177 14.0527457,29.2050785 11.7910156,29.1230469 L10.1386719,29.0703125 C9.56445025,29.0585937 9.14257947,29.0117192 8.87304688,28.9296875 C8.60351428,28.8476558 8.42187547,28.7304695 8.328125,28.578125 C8.23437453,28.4257805 8.16992205,28.2265637 8.13476562,27.9804688 L8.13476562,27.9804688 Z M17.5039062,28.7539063 C17.5625003,28.4140608 17.6621087,28.0537128 17.8027344,27.6728516 C17.9433601,27.2919903 18.2568335,26.9404313 18.7431641,26.6181641 C19.2294946,26.2958968 19.6249985,26.1289063 19.9296875,26.1171875 C20.0351568,26.1171875 20.3603488,26.1933586 20.9052734,26.3457031 C21.450198,26.4980476 22.0449187,26.5625001 22.6894531,26.5390625 L25.1328125,26.4863281 C26.0703172,26.4746093 27.631825,26.5273432 29.8173828,26.6445313 C32.0029406,26.7617193 33.2041005,26.9052726 33.4208984,27.0751953 C33.6376964,27.245118 33.7460938,27.476561 33.7460938,27.7695313 C33.7343749,28.2265648 33.5439472,28.507812 33.1748047,28.6132813 C32.8056622,28.7187505 32.4335956,28.774414 32.0585938,28.7802734 C31.6835919,28.7861328 30.8544986,28.7656252 29.5712891,28.71875 C28.2880795,28.6718748 27.1543018,28.6484375 26.1699219,28.6484375 L22.7773438,28.6835938 C21.8046826,28.6953126 21.107424,28.7187498 20.6855469,28.7539063 C20.2636698,28.7890627 19.7832058,28.9033193 19.2441406,29.0966797 C18.7050754,29.29004 18.3417978,29.3691408 18.1542969,29.3339844 C17.9082019,29.2988279 17.7470707,29.2285162 17.6708984,29.1230469 C17.5947262,29.0175776 17.5390627,28.894532 17.5039062,28.7539063 L17.5039062,28.7539063 Z M19.71875,31.3027344 C19.71875,30.7988256 19.8007804,30.3974624 19.9648438,30.0986328 C20.1289071,29.7998032 20.4130839,29.647461 20.8173828,29.6416016 C21.2216817,29.6357422 21.5117179,29.6562498 21.6875,29.703125 L22.3027344,29.8789063 C22.4082037,29.9140627 22.9033159,29.9374999 23.7880859,29.9492188 C24.672856,29.9609376 25.5078086,29.9960935 26.2929688,30.0546875 C27.0781289,30.1132815 27.6523419,30.1367188 28.015625,30.125 C28.26172,30.125 28.5517561,30.0693365 28.8857422,29.9580078 C29.2197282,29.8466791 29.4687492,29.7910156 29.6328125,29.7910156 C29.8789075,29.8027344 30.1425767,29.8876945 30.4238281,30.0458984 C30.7050795,30.2041024 30.9101556,30.4003895 31.0390625,30.6347656 C31.1679694,30.8691418 31.2353515,31.0683586 31.2412109,31.2324219 C31.2470703,31.3964852 31.2148441,31.6396468 31.1445312,31.9619141 C31.0742184,32.2841813 31.0273439,32.603514 31.0039062,32.9199219 L30.8457031,34.3964844 C30.7988279,34.8183615 30.6464857,35.1904281 30.3886719,35.5126953 C30.1308581,35.8349625 29.7441432,35.925782 29.2285156,35.7851563 L28.15625,35.5214844 C27.6757788,35.4042963 26.6211019,35.3398438 24.9921875,35.328125 C24.2773402,35.328125 23.7236348,35.3632809 23.3310547,35.4335938 C22.9384746,35.5039066 22.5166038,35.6152336 22.0654297,35.7675781 C21.6142556,35.9199226 21.3125008,35.9902344 21.1601562,35.9785156 C20.7851544,35.9785156 20.5478521,35.8583996 20.4482422,35.6181641 C20.3486323,35.3779285 20.2812502,35.1113296 20.2460938,34.8183594 C20.2109373,34.5253892 20.1376959,34.1298853 20.0263672,33.6318359 C19.9150385,33.1337866 19.8417971,32.7646496 19.8066406,32.5244141 C19.7714842,32.2841785 19.7421876,31.876956 19.71875,31.3027344 L19.71875,31.3027344 Z M22.390625,32.7089844 C22.3789062,33.2714872 22.4433587,33.6025386 22.5839844,33.7021484 C22.7246101,33.8017583 22.9296862,33.8515625 23.1992188,33.8515625 C23.2812504,33.8632813 23.5009748,33.8515627 23.8583984,33.8164063 C24.2158221,33.7812498 24.5585921,33.7636719 24.8867188,33.7636719 L26.2226563,33.78125 C26.726565,33.7929688 27.0576164,33.8076171 27.2158203,33.8251953 C27.3740242,33.8427735 27.4765623,33.8457032 27.5234375,33.8339844 C27.8750018,33.8222656 28.1093744,33.7343758 28.2265625,33.5703125 C28.3437506,33.4062492 28.4228514,33.2128917 28.4638672,32.9902344 C28.504883,32.767577 28.5253906,32.5917975 28.5253906,32.4628906 C28.5136718,32.1582016 28.4492193,31.9677738 28.3320313,31.8916016 C28.2148432,31.8154293 28.0390637,31.7656251 27.8046875,31.7421875 L26.6796875,31.6542969 L24.78125,31.6542969 C23.5976503,31.6542969 22.9003917,31.7275383 22.6894531,31.8740234 C22.4785146,32.0205085 22.3789062,32.2988261 22.390625,32.7089844 L22.390625,32.7089844 Z M24.21875,68.0917969 L24.8691406,68.3378906 L28.1386719,69.3222656 C28.7714875,69.5214854 29.9199136,69.782225 31.5839844,70.1044922 C33.2480552,70.4267594 34.6132759,70.6054686 35.6796875,70.640625 C35.8085944,70.6523438 35.9111324,70.68457 35.9873047,70.7373047 C36.0634769,70.7900393 36.1074218,70.8662104 36.1191406,70.9658203 C36.1308594,71.0654302 36.1191408,71.1738275 36.0839844,71.2910156 C35.9199211,71.7832056 35.7089857,72.2314433 35.4511719,72.6357422 C35.1933581,73.0400411 34.6982458,73.4677712 33.9658203,73.9189453 C33.2333948,74.3701194 32.3984422,74.5957031 31.4609375,74.5957031 C30.8867159,74.6074219 30.3066436,74.4960949 29.7207031,74.2617188 C29.1347627,74.0273426 28.5136752,73.6933615 27.8574219,73.2597656 L25.34375,71.5546875 C24.6640591,71.1210916 24.2304697,70.8193368 24.0429688,70.6494141 C23.8554678,70.4794913 23.7324222,70.3916016 23.6738281,70.3857422 C23.6152341,70.3798828 23.5273443,70.4531242 23.4101562,70.6054688 C22.4140575,71.8593813 21.5820346,72.7060525 20.9140625,73.1455078 C20.2460904,73.5849631 19.5253945,73.9482408 18.7519531,74.2353516 C17.9785118,74.5224624 17.3105497,74.6484377 16.7480469,74.6132813 C16.3027321,74.5898436 15.9423842,74.4082048 15.6669922,74.0683594 C15.3916002,73.7285139 15.2509766,73.3710956 15.2451172,72.9960938 C15.2392578,72.6210919 15.3066399,72.2285177 15.4472656,71.8183594 C15.4472656,71.7949218 15.5175774,71.5898457 15.6582031,71.203125 C15.7988288,70.8164043 15.8896482,70.5058605 15.9306641,70.2714844 C15.9716799,70.0371082 15.9951172,69.8085949 16.0009766,69.5859375 C16.006836,69.3632801 15.980469,69.1816413 15.921875,69.0410156 C15.863281,68.9003899 15.7226574,68.9003899 15.5,69.0410156 C15.2187486,69.2285166 13.8828245,69.9199159 11.4921875,71.1152344 C9.10155055,72.3105529 7.1914134,72.8730472 5.76171875,72.8027344 C4.81249525,72.7675779 4.14746284,72.4218783 3.76660156,71.765625 C3.38574028,71.1093717 3.1953125,70.5761739 3.1953125,70.1660156 C3.1953125,70.0605463 3.20996079,69.9931642 3.23925781,69.9638672 C3.26855483,69.9345702 3.54687236,69.9082032 4.07421875,69.8847656 C4.60156514,69.861328 5.2490196,69.8085942 6.01660156,69.7265625 C6.78418353,69.6445308 8.14647459,69.3837913 10.1035156,68.9443359 C12.0605567,68.5048806 13.4521443,68.0449243 14.2783203,67.5644531 C15.1044963,67.083982 15.5117188,66.7500009 15.5,66.5625 C15.4765624,66.3632803 15.3183608,66.2812498 15.0253906,66.3164063 L14.4980469,66.3867188 L13.3027344,66.5097656 C12.9042949,66.5566409 12.4853538,66.632812 12.0458984,66.7382813 C11.6064431,66.8437505 11.316407,66.8906251 11.1757812,66.8789063 C10.7890606,66.8671874 10.5664065,66.7880867 10.5078125,66.6416016 C10.4492185,66.4951165 10.4169922,66.3750005 10.4111328,66.28125 C10.4052734,66.1874995 10.4374996,66.0644539 10.5078125,65.9121094 C10.5898442,65.7363272 10.7978499,65.4785173 11.1318359,65.1386719 C11.465822,64.7988264 11.8847631,64.6289063 12.3886719,64.6289063 L13.2851562,64.6464844 C13.6015641,64.6582032 14.1874957,64.6289066 15.0429688,64.5585938 C15.8984418,64.4882809 16.4609362,64.4560547 16.7304688,64.4619141 C17.0000013,64.4677735 17.2490223,64.4560548 17.4775391,64.4267578 C17.7060558,64.3974608 17.8173828,64.3476566 17.8115234,64.2773438 C17.805664,64.2070309 17.7382819,64.0898446 17.609375,63.9257813 L17.1347656,63.3808594 C16.8535142,63.0761704 16.7187499,62.8125011 16.7304688,62.5898438 C16.7421876,62.3671864 16.8476553,62.1591807 17.046875,61.9658203 C17.2460947,61.77246 17.6445283,61.6757813 18.2421875,61.6757813 C18.8750032,61.6875001 19.3935527,61.7929678 19.7978516,61.9921875 C20.2021505,62.1914072 20.5097646,62.4316392 20.7207031,62.7128906 C20.9316417,62.994142 21.0898432,63.2958968 21.1953125,63.6181641 C21.3007818,63.9404313 21.4003902,64.1425777 21.4941406,64.2246094 C21.5878911,64.306641 21.7080071,64.3652342 21.8544922,64.4003906 C22.0009773,64.4355471 22.2587872,64.4501953 22.6279297,64.4443359 C22.9970722,64.4384765 23.61523,64.4531248 24.4824219,64.4882813 L26.0292969,64.5585938 C26.9316451,64.605469 27.4589836,64.6962884 27.6113281,64.8310547 C27.7636726,64.965821 27.8427734,65.1416005 27.8486328,65.3583984 C27.8544922,65.5751964 27.7402355,65.7480462 27.5058594,65.8769531 C27.2011704,66.0644541 26.7207064,66.1464845 26.0644531,66.1230469 C25.4081998,66.0996093 25.1386713,66.0996093 25.2558594,66.1230469 L25.9238281,66.3339844 C26.1816419,66.4277348 26.3134765,66.5712881 26.3193359,66.7646484 C26.3251953,66.9580088 26.2753912,67.11914 26.1699219,67.2480469 C26.0761714,67.3535162 25.9355478,67.4648432 25.7480469,67.5820313 C25.5605459,67.6992193 25.0507854,67.8691395 24.21875,68.0917969 L24.21875,68.0917969 Z M22.4257812,69.5332031 C22.4257812,69.5214843 22.3496101,69.4306649 22.1972656,69.2607422 C22.0449211,69.0908195 21.6552766,68.9326179 21.0283203,68.7861328 C20.4013641,68.6396477 19.8623069,68.542969 19.4111328,68.4960938 C18.9599587,68.4492185 18.7460936,68.2148459 18.7695312,67.7929688 C18.7695312,67.7109371 18.8193354,67.5849618 18.9189453,67.4150391 C19.0185552,67.2451163 19.2792948,67.1542969 19.7011719,67.1425781 C19.9121104,67.1425781 20.1494127,67.1630857 20.4130859,67.2041016 C20.6767591,67.2451174 21.1074189,67.3505851 21.7050781,67.5205078 C22.3027374,67.6904305 22.6601557,67.7783203 22.7773438,67.7841797 C22.8945318,67.7900391 23.0527334,67.7109383 23.2519531,67.546875 C23.5097669,67.3359364 23.7207023,67.1044934 23.8847656,66.8525391 C24.0488289,66.6005847 24.133789,66.4189459 24.1396484,66.3076172 C24.1455078,66.1962885 23.9667987,66.1289064 23.6035156,66.1054688 C23.4746087,66.1054688 23.2636733,66.1171874 22.9707031,66.140625 C22.6777329,66.1640626 22.0332081,66.1904295 21.0371094,66.2197266 C20.0410106,66.2490236 19.3759782,66.3515616 19.0419922,66.5273438 C18.7080061,66.7031259 18.5000004,67.0488255 18.4179688,67.5644531 C18.3359371,68.0800807 18.2861329,68.5195294 18.2685547,68.8828125 C18.2509765,69.2460956 18.2480468,69.5449207 18.2597656,69.7792969 C18.2597656,70.013673 18.2949215,70.2597643 18.3652344,70.5175781 C18.4355472,70.7753919 18.6699199,70.9218748 19.0683594,70.9570313 C19.4316424,71.0039065 19.9882775,70.8750015 20.7382812,70.5703125 C21.488285,70.2656235 21.9541007,70.0224618 22.1357422,69.8408203 C22.3173837,69.6591788 22.4140624,69.5566407 22.4257812,69.5332031 L22.4257812,69.5332031 Z M11.7382812,59.3554688 L11.4570312,59.4257813 L10.7011719,59.7597656 C9.57616625,60.2636744 8.5419969,60.2197295 7.59863281,59.6279297 C6.65526872,59.0361299 6.18945307,58.2832077 6.20117188,57.3691406 C6.20117188,57.1230456 6.23632777,56.9677738 6.30664062,56.9033203 C6.37695348,56.8388669 6.49999912,56.794922 6.67578125,56.7714844 L7.765625,56.6484375 C8.73828611,56.5429682 10.0068281,56.2910176 11.5712891,55.8925781 C13.13575,55.4941386 14.3251912,55.1044941 15.1396484,54.7236328 C15.9541056,54.3427715 16.4316399,54.1582031 16.5722656,54.1699219 C16.8769546,54.2050783 17.0322265,54.3076163 17.0380859,54.4775391 C17.0439453,54.6474618 17.0410157,54.7617185 17.0292969,54.8203125 C16.9941404,54.9609382 16.8505872,55.2070295 16.5986328,55.5585938 C16.3466784,55.910158 16.1650396,56.15039 16.0537109,56.2792969 C15.9423823,56.4082038 15.7695324,56.5781239 15.5351562,56.7890625 C15.3007801,57.0000011 15.1572268,57.1640619 15.1044922,57.28125 C15.0517575,57.3984381 15.0195313,57.5390617 15.0078125,57.703125 C14.9960937,57.8671883 14.9902344,58.0546864 14.9902344,58.265625 C14.9785156,58.3828131 14.9785156,58.5058587 14.9902344,58.6347656 L15.0429687,61.8339844 C15.0312499,62.3847684 14.9873051,62.7949205 14.9111328,63.0644531 C14.8349606,63.3339857 14.7177742,63.5654287 14.5595703,63.7587891 C14.4013664,63.9521494 14.1113302,64.1132806 13.6894531,64.2421875 C13.267576,64.3710944 12.8925798,64.4296876 12.5644531,64.4179688 C12.2011701,64.4179688 11.9550788,64.3505866 11.8261719,64.2158203 C11.697265,64.081054 11.6298828,63.9140635 11.6240234,63.7148438 C11.618164,63.515624 11.6210937,63.3984377 11.6328125,63.3632813 L11.6679687,62.203125 L11.703125,61.0957031 L11.7734375,59.953125 L11.7734375,59.6894531 L11.7382812,59.3554688 Z M30.1601562,61.7109375 C30.9453164,61.7109375 31.5371074,61.6962892 31.9355469,61.6669922 C32.3339864,61.6376952 32.6621081,61.587891 32.9199219,61.5175781 C33.1777357,61.4472653 33.3564448,61.4179687 33.4560547,61.4296875 C33.5556646,61.4414063 33.6347653,61.5498037 33.6933594,61.7548828 C33.7519534,61.959962 33.7050789,62.2148422 33.5527344,62.5195313 C33.2949206,63.0117212 32.8584015,63.5742156 32.2431641,64.2070312 C31.6279266,64.8398469 30.7226622,65.1503907 29.5273438,65.1386719 C29.2578112,65.1386719 28.8974632,65.094727 28.4462891,65.0068359 C27.9951149,64.9189449 27.2949266,64.6142604 26.3457031,64.0927734 C25.3964796,63.5712865 24.5849643,63.0732446 23.9111328,62.5986328 C23.2373013,62.1240211 22.639651,61.6113309 22.1181641,61.0605469 C21.5966771,60.5097629 21.2744147,60.1845708 21.1513672,60.0849609 C21.0283197,59.9853511 20.9345706,59.9296876 20.8701172,59.9179688 C20.8056637,59.9062499 20.6503919,59.9121093 20.4042969,59.9355469 L19.2441406,60.0585938 C18.7636695,60.1171878 18.1191447,60.2812487 17.3105469,60.5507813 C16.5019491,60.8203138 16.0244148,60.7705097 15.8779297,60.4013672 C15.7314446,60.0322247 15.6640624,59.7832038 15.6757813,59.6542969 C15.6757813,59.4550771 15.7314448,59.2529307 15.8427734,59.0478516 C15.9541021,58.8427724 16.1943341,58.5615252 16.5634766,58.2041016 C16.932619,57.8466779 17.2695297,57.708984 17.5742188,57.7910156 L17.9433594,57.8964844 C18.0488287,57.9316408 18.1718743,57.9550781 18.3125,57.9667969 L19.6835938,57.9316406 C20.1054709,57.9433594 20.3339842,57.8964849 20.3691406,57.7910156 L20.3339844,57.3691406 L20.2988281,56.7363281 L20.2109375,55.8046875 L20.1933594,55.6464844 C20.1816406,55.5175775 20.1992185,55.3359387 20.2460938,55.1015625 C20.3046878,54.7968735 20.4189445,54.4892594 20.5888672,54.1787109 C20.7587899,53.8681625 21.1249972,53.7070313 21.6875,53.6953125 C21.9570326,53.6953125 22.2851543,53.7919912 22.671875,53.9853516 C23.0585957,54.1787119 23.2812497,54.5273412 23.3398438,55.03125 C23.3398438,55.0546876 23.3339844,55.256834 23.3222656,55.6376953 C23.3105468,56.0185566 23.3339841,56.349608 23.3925781,56.6308594 C23.462891,57.0292989 23.565429,57.3017571 23.7001953,57.4482422 C23.8349616,57.5947273 24.4472602,57.6152349 25.5371094,57.5097656 L27.4179688,57.3339844 C29.3164157,57.1582022 30.3740224,57.1582022 30.5908203,57.3339844 C30.8076183,57.5097665 30.904297,57.7792951 30.8808594,58.1425781 C30.8574218,58.3652355 30.7753913,58.5527336 30.6347656,58.7050781 C30.4941399,58.8574226 29.8291075,59.0156242 28.6396484,59.1796875 C27.4501894,59.3437508 26.4599649,59.4404295 25.6689453,59.4697266 C24.8779257,59.4990236 24.4648439,59.5400388 24.4296875,59.5927734 C24.3945311,59.6455081 24.3740235,59.6865233 24.3681641,59.7158203 C24.3623047,59.7451173 24.3710936,59.7773436 24.3945312,59.8125 C24.4179689,59.9062505 24.5527331,60.064452 24.7988281,60.2871094 C25.0449231,60.5097667 25.4609346,60.764647 26.046875,61.0517578 C26.6328154,61.3388686 28.0038955,61.558593 30.1601562,61.7109375 L30.1601562,61.7109375 Z M24.8339844,56.7363281 C24.9042972,56.6542965 25.0888657,56.4960949 25.3876953,56.2617188 C25.6865249,56.0273426 25.9296866,55.7636733 26.1171875,55.4707031 L26.46875,54.890625 C26.7031262,54.4921855 27.0078106,54.2929688 27.3828125,54.2929688 C27.5937511,54.3046876 27.8369127,54.3749994 28.1123047,54.5039063 C28.3876967,54.6328131 28.5664058,54.8115223 28.6484375,55.0400391 C28.7304692,55.2685558 28.7714844,55.429687 28.7714844,55.5234375 C28.7597656,55.7812513 28.6132827,56.0449205 28.3320312,56.3144531 C28.0507798,56.5839857 27.637698,56.8066397 27.0927734,56.9824219 C26.5478488,57.158204 26.0292993,57.2402344 25.5371094,57.2285156 C25.1503887,57.2285156 24.9306643,57.1845708 24.8779297,57.0966797 C24.825195,57.0087886 24.8017578,56.9384768 24.8076172,56.8857422 C24.8134766,56.8330075 24.8222656,56.7832034 24.8339844,56.7363281 L24.8339844,56.7363281 Z" id="福袋" fill="#323232"></path>
            </g>
        </g>
    </g>
</svg>