<?xml version="1.0" encoding="utf-8"?>
<!-- Generator: Adobe Illustrator 16.0.0, SVG Export Plug-In . SVG Version: 6.00 Build 0)  -->
<!DOCTYPE svg PUBLIC "-//W3C//DTD SVG 1.1//EN" "http://www.w3.org/Graphics/SVG/1.1/DTD/svg11.dtd">
<svg version="1.1" id="图层_1" xmlns="http://www.w3.org/2000/svg" xmlns:xlink="http://www.w3.org/1999/xlink" x="0px" y="0px"
	 width="319px" height="306px" viewBox="0 0 319 306" enable-background="new 0 0 319 306" xml:space="preserve">
<title>Group 2</title>
<desc>Created with Sketch.</desc>
<g id="Symbols">
	<g id="抽奖盘灯旋转" transform="translate(-2.000000, -5.000000)">
		<g id="Group-2" transform="translate(4.000000, 7.000000)">
			<path id="Combined-Shape" fill="#92F6FB" stroke="#3F0414" stroke-width="4" d="M100,10c2.761,0,5-2.238,5-5s-2.239-5-5-5
				s-5,2.238-5,5S97.239,10,100,10z M212.412,9.857c1.952,1.953,5.118,1.953,7.07,0c1.953-1.953,1.953-5.119,0-7.071
				c-1.952-1.953-5.118-1.953-7.07,0C210.459,4.738,210.459,7.904,212.412,9.857z M288,85c0,2.762,2.238,5,5,5s5-2.238,5-5
				s-2.238-5-5-5S288,82.238,288,85z M291.143,195.412c-1.952,1.952-1.952,5.118,0,7.07c1.953,1.953,5.119,1.953,7.072,0
				c1.952-1.952,1.952-5.118,0-7.07C296.262,193.459,293.096,193.459,291.143,195.412z M217,272c-2.762,0-5,2.238-5,5s2.238,5,5,5
				s5-2.238,5-5S219.762,272,217,272z M106.588,276.143c-1.953-1.952-5.119-1.952-7.071,0c-1.953,1.953-1.953,5.119,0,7.072
				c1.953,1.952,5.119,1.952,7.071,0C108.541,281.262,108.541,278.096,106.588,276.143z M26,203c0-2.762-2.239-5-5-5s-5,2.238-5,5
				s2.239,5,5,5S26,205.762,26,203z M21.857,88.588c1.953-1.953,1.953-5.119,0-7.071s-5.119-1.953-7.071,0s-1.953,5.119,0,7.071
				S19.904,90.541,21.857,88.588z"/>
			<path id="Combined-Shape_1_" fill="#FFEDB8" stroke="#3F0414" stroke-width="4" d="M8.926,147.024
				c3.84-0.957,6.176-4.846,5.219-8.686c-0.957-3.84-4.846-6.176-8.686-5.219c-3.84,0.958-6.177,4.847-5.219,8.687
				C1.197,145.645,5.086,147.982,8.926,147.024z M57.836,253.463c2.038-3.393,0.941-7.795-2.451-9.832
				c-3.392-2.039-7.794-0.941-9.833,2.451c-2.038,3.392-0.94,7.794,2.451,9.832C51.396,257.952,55.798,256.855,57.836,253.463z
				 M164.918,292.994c-0.958-3.84-4.847-6.176-8.687-5.219s-6.177,4.846-5.219,8.686s4.846,6.177,8.686,5.22
				C163.538,300.723,165.875,296.834,164.918,292.994z M268.355,243.377c-3.393-2.039-7.794-0.941-9.832,2.451
				c-2.038,3.392-0.941,7.794,2.451,9.832s7.795,0.94,9.832-2.451C272.846,249.816,271.748,245.414,268.355,243.377z
				 M305.888,137.003c-3.841,0.957-6.177,4.846-5.22,8.686c0.957,3.839,4.847,6.176,8.687,5.219c3.84-0.957,6.177-4.846,5.219-8.686
				C313.616,138.382,309.727,136.045,305.888,137.003z M261.27,33.857c-2.039,3.392-0.941,7.794,2.451,9.832
				s7.794,0.941,9.832-2.451c2.039-3.392,0.941-7.794-2.451-9.833S263.308,30.465,261.27,33.857z M50.75,39.943
				c3.392,2.039,7.794,0.941,9.833-2.451s0.94-7.794-2.452-9.833c-3.392-2.038-7.794-0.94-9.832,2.452
				C46.26,33.503,47.358,37.905,50.75,39.943z"/>
		</g>
	</g>
</g>
</svg>
