<?xml version="1.0" encoding="UTF-8"?>
<svg width="94px" height="94px" viewBox="0 0 94 94" version="1.1" xmlns="http://www.w3.org/2000/svg" xmlns:xlink="http://www.w3.org/1999/xlink">
    <!-- Generator: Sketch 40 (33762) - http://www.bohemiancoding.com/sketch -->
    <title>抽奖按钮</title>
    <desc>Created with Sketch.</desc>
    <defs></defs>
    <g id="Symbols" stroke="none" stroke-width="1" fill="none" fill-rule="evenodd">
        <g id="抽奖按钮" transform="translate(-2.000000, -2.000000)">
            <g transform="translate(0.000000, 4.000000)">
                <circle id="Oval" stroke="#323232" stroke-width="4" fill="#E75233" cx="49" cy="45" r="45"></circle>
                <path d="M17.34375,38.8769531 C15.3671776,38.9342451 14.2643241,38.9807941 14.0351562,39.0166016 C13.8059884,39.052409 13.3977894,39.1276036 12.8105469,39.2421875 L11.9726562,39.4140625 C11.2421838,39.5716154 10.7945972,39.5035822 10.6298828,39.2099609 C10.4651684,38.9163397 10.3792318,38.6084 10.3720703,38.2861328 C10.3649088,37.9638656 10.4973945,37.5950542 10.7695312,37.1796875 C11.3138048,36.3346312 12.0227821,35.9837232 12.8964844,36.1269531 L13.6054687,36.2558594 C13.9062515,36.3131513 14.5650991,36.3059899 15.5820312,36.234375 L17.1503906,36.1269531 C17.4654964,36.1126301 17.6481117,36.0660811 17.6982422,35.9873047 C17.7483726,35.9085283 17.7770182,35.7294936 17.7841797,35.4501953 C17.7913412,35.170897 17.7805991,34.7949242 17.7519531,34.3222656 L17.6230469,32.4960938 C17.6087239,32.4674478 17.6051432,32.2705096 17.6123047,31.9052734 C17.6194662,31.5400372 17.6409503,31.2213555 17.6767578,30.9492188 C17.7125653,30.677082 17.9775366,30.3691423 18.4716797,30.0253906 C18.9658228,29.6816389 19.6927035,29.8535122 20.6523437,30.5410156 C20.9960955,30.7988294 21.2825509,31.106769 21.5117187,31.4648438 C21.7408866,31.8229185 21.8697915,32.2454403 21.8984375,32.7324219 C21.9270835,33.2194035 21.90918,33.7815723 21.8447266,34.4189453 C21.7802731,35.0563183 21.7444662,35.4430332 21.7373047,35.5791016 C21.7301432,35.71517 21.7623694,35.8118487 21.8339844,35.8691406 C21.8769533,35.9264326 22.1634088,35.9550781 22.6933594,35.9550781 C23.8248754,35.9837241 24.5159493,36.1269518 24.7666016,36.3847656 C25.0172539,36.6425794 25.1425781,36.9290349 25.1425781,37.2441406 C25.1282551,37.5735694 25.0208343,37.8457021 24.8203125,38.0605469 C24.6197907,38.2753917 24.2044302,38.4365229 23.5742187,38.5439453 C22.9440073,38.6513677 22.503582,38.7014974 22.2529297,38.6943359 C22.0022774,38.6871744 21.8483076,38.7122393 21.7910156,38.7695312 C21.7337237,38.8268232 21.7050781,39.0559876 21.7050781,39.4570312 L21.6835937,40.9824219 C21.6692708,41.2975276 21.8339827,41.4479167 22.1777344,41.4335938 C22.2493493,41.4335938 22.3567701,41.4264324 22.5,41.4121094 C22.6432299,41.3977864 22.8974591,41.3476567 23.2626953,41.2617188 C23.6279315,41.1757808 23.8749994,41.1256511 24.0039062,41.1113281 C24.347658,41.1113281 24.5553382,41.2366524 24.6269531,41.4873047 C24.6985681,41.737957 24.7379557,41.9098303 24.7451172,42.0029297 C24.7522787,42.0960291 24.7272138,42.2070306 24.6699219,42.3359375 C24.5983069,42.4934904 24.4765634,42.6582023 24.3046875,42.8300781 C24.1328116,43.001954 23.6709022,43.2526025 22.9189453,43.5820312 C22.1669884,43.91146 21.7731122,44.1227209 21.7373047,44.2158203 C21.7014972,44.3089197 21.6800131,44.4199212 21.6728516,44.5488281 C21.6656901,44.677735 21.6692708,44.7421875 21.6835937,44.7421875 L21.7265625,46.0742188 C21.7408855,46.6757843 21.769531,47.4134071 21.8125,48.2871094 C21.855469,49.1608117 21.8769531,49.8053365 21.8769531,50.2207031 C21.8626301,51.1660204 21.7337252,51.9394501 21.4902344,52.5410156 C21.2467436,53.1425811 20.8349638,53.7011693 20.2548828,54.2167969 C19.6748018,54.7324245 19.0660839,55.1513656 18.4287109,55.4736328 C17.791338,55.7959 16.8066473,55.9498699 15.4746094,55.9355469 C14.6152301,55.9355469 13.8776072,55.863933 13.2617187,55.7207031 C12.6458303,55.5774732 11.9547564,55.2802757 11.1884766,54.8291016 C10.4221967,54.3779274 9.8242209,53.9697284 9.39453125,53.6044922 C8.9648416,53.239256 8.60677227,52.8382183 8.3203125,52.4013672 C8.03385273,51.964516 7.88704431,51.6888027 7.87988281,51.5742188 C7.87272132,51.4596348 7.87272132,51.3235685 7.87988281,51.1660156 C7.88704431,51.0084628 7.92643193,50.9261068 7.99804687,50.9189453 C8.06966182,50.9117838 8.17708262,50.979817 8.3203125,51.1230469 C8.46354238,51.2805997 8.84309588,51.4703765 9.45898437,51.6923828 C10.0748729,51.9143891 10.7050749,52.0719396 11.3496094,52.1650391 C11.9941438,52.2581385 12.8391875,52.2975261 13.8847656,52.2832031 C14.67253,52.2832031 15.4495404,52.1471368 16.2158203,51.875 C16.9821002,51.6028632 17.4440096,51.1087275 17.6015625,50.3925781 C17.7591154,49.6764287 17.8844396,48.9065796 17.9775391,48.0830078 C18.0706385,47.259436 18.1100261,46.6471374 18.0957031,46.2460938 C18.0813801,45.8450501 17.9667979,45.6230471 17.7519531,45.5800781 L17.1289062,45.7519531 L15.7109375,46.1386719 L13.9492187,46.6757812 C12.8033797,47.033856 11.9690781,46.9765649 11.4462891,46.5039062 C10.9235,46.0312476 10.6585287,45.6337907 10.6513672,45.3115234 C10.6442057,44.9892562 10.6979161,44.7278656 10.8125,44.5273438 C11.0989598,43.9687472 11.5644499,43.585613 12.2089844,43.3779297 C12.8535188,43.1702464 13.6842397,42.9518241 14.7011719,42.7226562 L16.3769531,42.3574219 L17.4082031,42.1425781 C17.6946629,42.0852862 17.8701169,41.9850268 17.9345703,41.8417969 C17.9990238,41.698567 18.0384114,41.5266937 18.0527344,41.3261719 L18.0957031,40.703125 L18.0957031,40.2519531 C18.0813801,39.9654934 18.059896,39.7041027 18.03125,39.4677734 C18.002604,39.2314441 17.9453129,39.0774743 17.859375,39.0058594 C17.7734371,38.9342444 17.6015638,38.8912761 17.34375,38.8769531 L17.34375,38.8769531 Z M24.9277344,39.5859375 C25.0566413,39.013018 25.2070304,38.569012 25.3789062,38.2539062 C25.5507821,37.9388005 25.8121727,37.6738292 26.1630859,37.4589844 C26.5139992,37.2441396 26.8863913,37.1009118 27.2802734,37.0292969 C27.6741556,36.9576819 27.9928373,36.9648433 28.2363281,37.0507812 L29.1171875,37.3945312 L30.0195312,37.5019531 L30.8359375,37.5234375 C32.1250064,37.5664065 32.8339837,37.5126961 32.9628906,37.3623047 C33.0917975,37.2119133 33.1598307,36.9755875 33.1669922,36.6533203 C33.1741537,36.3310531 33.1419274,35.8619822 33.0703125,35.2460938 C33.0416665,35.0598949 32.977214,34.5729206 32.8769531,33.7851562 C32.7766922,32.9973919 32.7229818,32.2382849 32.7158203,31.5078125 C32.7086588,30.7773401 33.1920524,30.3834638 34.1660156,30.3261719 C34.4954444,30.3118489 34.98958,30.4801415 35.6484375,30.8310547 C36.307295,31.1819679 36.7083326,31.5615214 36.8515625,31.9697266 C36.9947924,32.3779317 37.0664062,32.7539045 37.0664062,33.0976562 C37.0520833,33.1835942 37.0270184,33.5058566 36.9912109,34.0644531 C36.9554035,34.6230497 36.9160158,35.1673151 36.8730469,35.6972656 C36.8300779,36.2272162 36.8050131,36.6533187 36.7978516,36.9755859 C36.7906901,37.2978532 36.8157549,37.4876299 36.8730469,37.5449219 C36.9303388,37.6022138 37.266924,37.6380208 37.8828125,37.6523438 L39.5585937,37.7167969 L40.9121094,37.6738281 C41.370445,37.6595051 41.6139321,37.6487631 41.6425781,37.6416016 C41.6712241,37.6344401 41.8574202,37.541342 42.2011719,37.3623047 C42.5449236,37.1832673 42.8600246,37.09375 43.1464844,37.09375 C43.4186212,37.108073 43.7766905,37.2190745 44.2207031,37.4267578 C44.6647158,37.6344411 45.0621727,37.9781877 45.4130859,38.4580078 C45.7639992,38.9378279 45.9430338,39.4248022 45.9501953,39.9189453 C45.9573568,40.4130884 45.932292,40.8893206 45.875,41.3476562 L45.703125,42.7011719 C45.660156,42.9733087 45.5992842,43.6357369 45.5205078,44.6884766 C45.4417314,45.7412162 45.3916017,46.4394514 45.3701172,46.7832031 C45.3486327,47.1269548 45.3414713,47.9039653 45.3486328,49.1142578 C45.3557943,50.3245503 45.3522136,51.1087222 45.3378906,51.4667969 C45.2949217,51.9537785 45.1946622,52.4121072 45.0371094,52.8417969 C44.8795565,53.2714865 44.4892609,53.6689435 43.8662109,54.0341797 C43.2431609,54.3994159 42.5878941,54.3600283 41.9003906,53.9160156 L40.5898437,53.0996094 C39.9453093,52.7128887 38.4557408,52.5123699 36.1210937,52.4980469 C33.7291547,52.4980469 32.2001986,52.5517573 31.5341797,52.6591797 C30.8681607,52.7666021 30.3919285,52.9205719 30.1054687,53.1210938 L28.9882812,53.9375 C28.7877594,54.0807299 28.372399,54.1559244 27.7421875,54.1630859 C27.111976,54.1702474 26.6500666,53.9088568 26.3564453,53.3789062 C26.0628241,52.8489557 25.8372404,52.1507205 25.6796875,51.2841797 C25.5221346,50.4176389 25.4147138,49.7086616 25.3574219,49.1572266 C25.3001299,48.6057915 25.2356774,47.4707117 25.1640625,45.7519531 L25.0351562,43.0234375 L24.9492187,41.0683594 L24.9277344,39.5859375 Z M29.03125,43.6679688 C29.4179707,43.8828136 29.8906222,43.983073 30.4492187,43.96875 C32.0247475,43.96875 32.8948559,43.9007168 33.0595703,43.7646484 C33.2242847,43.62858 33.313802,43.4388033 33.328125,43.1953125 L33.3710937,42.0566406 L33.3710937,41.5839844 C33.3710937,41.0826798 33.3352868,40.753256 33.2636719,40.5957031 C33.163411,40.4095043 33.0309253,40.2805993 32.8662109,40.2089844 C32.7014966,40.1373694 32.3613307,40.1015625 31.8457031,40.1015625 C30.2415284,40.1445315 29.3391937,40.2591137 29.1386719,40.4453125 C28.93815,40.6315113 28.8164065,40.9072247 28.7734375,41.2724609 C28.7304685,41.6376971 28.7054037,42.0387348 28.6982422,42.4755859 C28.6910807,42.9124371 28.7161455,43.1881505 28.7734375,43.3027344 C28.8307295,43.4173183 28.9166661,43.5390619 29.03125,43.6679688 L29.03125,43.6679688 Z M29.8046875,50.1992188 C30.6067748,50.1848958 31.2978487,50.1884765 31.8779297,50.2099609 C32.4580107,50.2314454 32.8339835,50.1526702 33.0058594,49.9736328 C33.1777352,49.7945955 33.2779946,49.5045593 33.3066406,49.1035156 L33.3710937,47.5996094 L33.3710937,47.2773438 C33.3710937,46.990884 33.3388675,46.7867845 33.2744141,46.6650391 C33.2099606,46.5432937 33.0846363,46.4430342 32.8984375,46.3642578 C32.7122387,46.2854814 32.2968782,46.2460938 31.6523437,46.2460938 L30.3632812,46.2675781 C30.0768215,46.2819011 29.790366,46.3463536 29.5039062,46.4609375 C29.2174465,46.5755214 29.013347,46.7044264 28.8916016,46.8476562 C28.7698562,46.9908861 28.7233071,47.3274713 28.7519531,47.8574219 C28.7519531,48.0865897 28.7698566,48.3873679 28.8056641,48.7597656 C28.8414715,49.1321633 28.8987626,49.4365223 28.9775391,49.6728516 C29.0563155,49.9091809 29.1565749,50.05957 29.2783203,50.1240234 C29.4000657,50.1884769 29.5755197,50.2135417 29.8046875,50.1992188 L29.8046875,50.1992188 Z M40.5898437,50.1347656 C40.8333346,50.0917967 41.0374341,50.00586 41.2021484,49.8769531 C41.3668628,49.7480462 41.481445,49.4401066 41.5458984,48.953125 C41.6103519,48.4661434 41.6461588,48.0472023 41.6533203,47.6962891 C41.6604818,47.3453758 41.6210942,47.0696625 41.5351562,46.8691406 C41.4492183,46.7115878 41.3167327,46.5791021 41.1376953,46.4716797 C40.958658,46.3642573 40.0742267,46.2962241 38.484375,46.2675781 C37.7682256,46.2675781 37.3457038,46.3069658 37.2167969,46.3857422 C37.08789,46.4645186 37.0019533,46.5504553 36.9589844,46.6435547 C36.9160154,46.7366541 36.8873699,47.1412725 36.8730469,47.8574219 L36.8300781,48.953125 C36.8157551,48.981771 36.8121744,49.0605462 36.8193359,49.1894531 C36.8264974,49.31836 36.8945306,49.4902333 37.0234375,49.7050781 C37.1523444,49.9199229 37.4889296,50.0345051 38.0332031,50.0488281 L39.6230469,50.1132812 L40.5898437,50.1347656 Z M39.1074219,43.9257812 C40.1100311,44.0403652 40.7330717,44.0367845 40.9765625,43.9150391 C41.2200533,43.7932937 41.3883459,43.6500659 41.4814453,43.4853516 C41.5745447,43.3206372 41.6282551,42.8372436 41.6425781,42.0351562 C41.6569011,41.2330689 41.5924486,40.7389332 41.4492187,40.5527344 C41.2916659,40.3665355 41.0732436,40.2519533 40.7939453,40.2089844 C40.514647,40.1660154 40.0384148,40.1302085 39.3652344,40.1015625 L37.9472656,40.0585938 C37.48893,40.0585938 37.2024745,40.1230462 37.0878906,40.2519531 C36.9733067,40.38086 36.9088542,40.5384105 36.8945312,40.7246094 C36.8802083,40.9108082 36.8623048,41.3082652 36.8408203,41.9169922 C36.8193358,42.5257192 36.8157551,42.8945306 36.8300781,43.0234375 C36.8300781,43.3528662 36.8909499,43.5820306 37.0126953,43.7109375 C37.1344407,43.8398444 37.3385402,43.9042969 37.625,43.9042969 L39.1074219,43.9257812 Z M68.7773437,43.96875 C68.8776047,43.7968741 68.9241537,43.6357429 68.9169922,43.4853516 C68.9098307,43.3349602 68.7486995,43.1881518 68.4335937,43.0449219 L67.7890625,42.8945312 C67.6744786,42.8658853 67.6100261,42.8515625 67.5957031,42.8515625 C67.5240882,42.8658855 67.4632164,43.0449202 67.4130859,43.3886719 C67.3629555,43.7324236 67.2698575,43.9938142 67.1337891,44.1728516 C66.9977207,44.3518889 66.7542335,44.5309236 66.4033203,44.7099609 C66.0524071,44.8889983 65.6692729,44.9713542 65.2539062,44.9570312 C64.4804649,44.9427083 64.0292975,44.7457701 63.9003906,44.3662109 C63.7714837,43.9866517 63.7070312,43.6536473 63.7070312,43.3671875 L63.7285156,42.0996094 C63.7285156,41.326168 63.7464191,40.8499358 63.7822266,40.6708984 C63.818034,40.4918611 63.8359375,40.3736982 63.8359375,40.3164062 C63.7929685,40.0156235 63.6783863,39.9798166 63.4921875,40.2089844 C63.1341128,40.638674 62.2281974,41.2903602 60.7744141,42.1640625 C59.3206308,43.0377648 58.2213579,43.4602866 57.4765625,43.4316406 C56.7317671,43.4173176 56.23047,43.1774112 55.9726562,42.7119141 C55.7148425,42.2464169 55.5823568,41.8704441 55.5751953,41.5839844 C55.5680338,41.2975246 55.6289056,41.0182305 55.7578125,40.7460938 C56.0585953,40.0585903 56.6028606,39.6575527 57.390625,39.5429688 L58.6152344,39.3710938 C58.9303401,39.3281248 59.5533808,39.1884777 60.484375,38.9521484 C61.4153692,38.7158191 62.1494114,38.4973968 62.6865234,38.296875 C63.2236355,38.0963532 63.5423172,37.8671888 63.6425781,37.609375 C63.742839,37.3515612 63.7929687,37.1367196 63.7929687,36.9648438 C63.7786458,36.8645828 63.764323,36.6927096 63.75,36.4492188 L63.4492187,33.65625 C63.3489578,32.9257776 63.3059895,32.4173191 63.3203125,32.1308594 C63.3346355,31.7011697 63.4527984,31.2858093 63.6748047,30.8847656 C63.896811,30.483722 64.2799452,30.2832031 64.8242187,30.2832031 C65.6692751,30.2975261 66.3245419,30.4980449 66.7900391,30.8847656 C67.2555362,31.2714863 67.549153,31.6295556 67.6708984,31.9589844 C67.7926438,32.2884131 67.8570963,32.6393211 67.8642578,33.0117188 C67.8714193,33.3841164 67.8248703,33.9785115 67.7246094,34.7949219 C67.6673174,35.1673196 67.5957036,35.8225865 67.5097656,36.7607422 C67.4238277,37.6988979 67.373698,38.4615856 67.359375,39.0488281 L67.3164062,40.8105469 C67.3020833,40.8248699 67.2985026,40.9143872 67.3056641,41.0791016 C67.3128256,41.2438159 67.3486325,41.3512367 67.4130859,41.4013672 C67.4775394,41.4514976 67.5813795,41.4694011 67.7246094,41.4550781 C68.6412806,41.4264321 70.2812382,41.2044292 72.6445312,40.7890625 C75.0078243,40.3736958 77.113272,39.6539765 78.9609375,38.6298828 C80.808603,37.6057892 81.7324219,36.9290381 81.7324219,36.5996094 C81.7180989,36.3131496 81.4746117,36.1555991 81.0019531,36.1269531 L79.9921875,36.0839844 L78.8964844,36.0625 L77.7792969,35.9980469 C77.4785141,35.9837239 77.19922,35.9765625 76.9414062,35.9765625 C75.7239522,35.9908855 74.8968121,36.1591781 74.4599609,36.4814453 C74.0231098,36.8037125 73.8011068,37.0042314 73.7939453,37.0830078 C73.7867838,37.1617842 73.8763012,37.2656244 74.0625,37.3945312 C74.2773448,37.5664071 74.5279934,37.7024735 74.8144531,37.8027344 C75.1009129,37.9029953 75.5270154,38.0032547 76.0927734,38.1035156 C76.6585315,38.2037765 76.9628904,38.3004553 77.0058594,38.3935547 C77.0488283,38.4866541 77.0738932,38.5475259 77.0810547,38.5761719 C77.0882162,38.6048179 77.0846355,38.6406248 77.0703125,38.6835938 C76.9843746,38.9127616 76.5690141,39.199217 75.8242187,39.5429688 C75.0794234,39.8867205 74.1985728,40.0585938 73.1816406,40.0585938 C72.4081993,40.0729167 71.9033215,39.9225276 71.6669922,39.6074219 C71.4306629,39.2923161 71.3053386,39.0882166 71.2910156,38.9951172 C71.2766926,38.9020178 71.2766926,38.7838549 71.2910156,38.640625 C71.2910156,38.4257802 71.3089191,38.264649 71.3447266,38.1572266 C71.380534,38.0498042 71.3912761,37.9495447 71.3769531,37.8564453 C71.3626301,37.7633459 71.2552093,37.7024741 71.0546875,37.6738281 C70.9973955,37.6738281 70.8613292,37.7060544 70.6464844,37.7705078 C70.4316396,37.8349613 70.0019563,37.8600261 69.3574219,37.8457031 C68.6412725,37.8313801 68.1829437,37.7132173 67.9824219,37.4912109 C67.7819,37.2692046 67.688802,37.0651051 67.703125,36.8789062 C67.703125,36.7499994 67.7353512,36.6354172 67.7998047,36.5351562 C67.8642581,36.4348953 67.9645175,36.3417973 68.1005859,36.2558594 C68.2366543,36.1699214 68.7200479,35.9837254 69.5507812,35.6972656 C70.3815146,35.4108059 71.2910107,34.8808632 72.2792969,34.1074219 C73.2675831,33.3339805 74.0696584,32.5891963 74.6855469,31.8730469 L75.609375,30.7988281 C76.0104187,30.3261695 76.4687474,30.0898438 76.984375,30.0898438 C77.4140646,30.1041667 77.8222637,30.2545559 78.2089844,30.5410156 C78.5957051,30.8274754 78.7962239,31.1640606 78.8105469,31.5507812 C78.8248699,31.9375019 78.8033857,32.2239574 78.7460937,32.4101562 C78.7031248,32.5390631 78.6136075,32.739582 78.4775391,33.0117188 C78.3414707,33.2838555 78.2268885,33.4664709 78.1337891,33.5595703 C78.0406896,33.6526697 77.9798179,33.7421871 77.9511719,33.828125 C77.9225259,33.9140629 78.166013,33.9570312 78.6816406,33.9570312 L80.5292969,34 C80.5292969,34.014323 80.6653632,34.0286458 80.9375,34.0429688 C81.2096368,34.0572917 81.7718056,33.9928393 82.6240234,33.8496094 C83.4762412,33.7063795 83.9381507,33.6276042 84.0097656,33.6132812 C84.811853,33.6132812 85.4384743,33.8854139 85.8896484,34.4296875 C86.3408226,34.9739611 86.5664062,35.5039037 86.5664062,36.0195312 C86.5520833,36.377606 86.4446625,36.7249332 86.2441406,37.0615234 C86.0436188,37.3981137 85.3489643,37.9387984 84.1601562,38.6835938 C82.9713482,39.4283891 81.8720754,40.0729139 80.8623047,40.6171875 C79.852534,41.1614611 78.2949324,41.6842423 76.1894531,42.1855469 L74.2128906,42.6152344 L72.9023437,42.9160156 C72.6588529,42.9733076 72.529948,43.0485021 72.515625,43.1416016 C72.501302,43.234701 72.5729159,43.3958322 72.7304687,43.625 C72.8164067,43.7825529 72.8629557,44.0117172 72.8701172,44.3125 C72.8772787,44.6132828 72.9166663,44.8281244 72.9882812,44.9570312 C73.0598962,45.0859381 73.9335854,45.1611327 75.609375,45.1826172 C77.2851646,45.2041017 79.5481628,45.2506507 82.3984375,45.3222656 C85.2487122,45.3938806 87.4544193,45.4261068 89.015625,45.4189453 C90.5768307,45.4117838 91.4111323,45.4869784 91.5185547,45.6445312 C91.6259771,45.8020841 91.6796875,45.9381505 91.6796875,46.0527344 C91.6653645,46.554039 91.1998744,47.3382108 90.2832031,48.4052734 C89.3665319,49.4723361 88.1490961,50.0130208 86.6308594,50.0273438 C86.2298157,50.0416667 85.771487,49.9700529 85.2558594,49.8125 L83.3652344,49.2753906 C80.7441275,48.5449182 78.4274189,48.0507825 76.4150391,47.7929688 C74.4026592,47.535155 73.2890636,47.40625 73.0742187,47.40625 C72.816405,47.420573 72.6373703,47.4707027 72.5371094,47.5566406 C72.4368485,47.6425786 72.3330083,47.8932271 72.2255859,48.3085938 C72.1181635,48.7239604 71.8281274,49.3541624 71.3554687,50.1992188 C70.8828101,51.0442751 70.0664121,52.0289657 68.90625,53.1533203 C67.7460879,54.2776749 66.1849056,55.0332012 64.2226562,55.4199219 C62.2604069,55.8066426 60.9283889,55.9928386 60.2265625,55.9785156 C59.4244752,55.9641926 58.6761102,55.8138035 57.9814453,55.5273438 C57.2867804,55.240884 56.882162,54.9472671 56.7675781,54.6464844 C56.6529942,54.3457016 56.6028645,54.1595056 56.6171875,54.0878906 C56.6315105,53.7727849 56.9036432,53.5973309 57.4335937,53.5615234 C57.9635443,53.525716 58.9912033,53.3824882 60.5166016,53.1318359 C62.0419998,52.8811836 63.3310494,52.4121128 64.3837891,51.7246094 C65.4365287,51.0371059 66.1347639,50.4713564 66.4785156,50.0273438 L67.7460937,48.0507812 C68.1328144,47.5781226 67.9967481,47.3811845 67.3378906,47.4599609 C66.6790332,47.5387374 66.1490905,47.5996092 65.7480469,47.6425781 L62.4394531,48.0078125 C59.4745946,48.3372412 57.2187577,48.7311175 55.671875,49.1894531 L53.3515625,49.8769531 C52.2200464,50.2207048 51.6077479,50.2135435 51.5146484,49.8554688 C51.421549,49.497394 51.375,49.2395841 51.375,49.0820312 C51.375,48.9244784 51.3821614,48.788412 51.3964844,48.6738281 C51.4251304,48.4303373 51.5970036,48.0543645 51.9121094,47.5458984 C52.2272151,47.0374324 52.8037067,46.5074897 53.6416016,45.9560547 C54.4794964,45.4046196 55.2636682,45.1289062 55.9941406,45.1289062 C56.1230475,45.1432292 56.2734366,45.1611327 56.4453125,45.1826172 C56.6171884,45.2041017 57.0755171,45.2864576 57.8203125,45.4296875 C58.5651079,45.5729174 59.3528604,45.6445312 60.1835937,45.6445312 C60.9427121,45.6588542 62.2711494,45.5944018 64.1689453,45.4511719 C66.0667413,45.307942 67.2340473,45.225586 67.6708984,45.2041016 C68.1077496,45.1826171 68.3870437,45.1110032 68.5087891,44.9892578 C68.6305345,44.8675124 68.705729,44.6992198 68.734375,44.484375 L68.7773437,43.96875 Z M56.9824219,34.4941406 C57.0253908,34.035805 57.2438131,33.6490901 57.6376953,33.3339844 C58.0315775,33.0188786 58.4505186,32.8613281 58.8945312,32.8613281 C59.2669289,32.8756511 59.5748686,32.9794912 59.8183594,33.1728516 C60.0618502,33.3662119 60.4091774,33.7600882 60.8603516,34.3544922 C61.3115257,34.9488962 61.7949193,35.4036443 62.3105469,35.71875 C62.8261745,36.0338557 63.0839844,36.2988271 63.0839844,36.5136719 C63.0696614,36.5996098 62.9873054,36.7643217 62.8369141,37.0078125 C62.6865227,37.2513033 62.1744835,37.3658855 61.3007812,37.3515625 C60.4986939,37.3515625 59.6250047,37.1796892 58.6796875,36.8359375 C57.7343703,36.4921858 57.2080083,36.0660833 57.1005859,35.5576172 C56.9931635,35.0491511 56.9537759,34.6946625 56.9824219,34.4941406 L56.9824219,34.4941406 Z M72.4511719,50.1992188 C72.4368489,49.898436 72.5478504,49.5725929 72.7841797,49.2216797 C73.020509,48.8707665 73.4895798,48.7024739 74.1914062,48.7167969 C74.8359407,48.7454429 75.3479799,48.8743478 75.7275391,49.1035156 C76.1070983,49.3326834 76.5618463,49.6406231 77.0917969,50.0273438 C77.6217474,50.4140644 78.1660128,50.8007793 78.7246094,51.1875 C79.2832059,51.5742207 79.8919238,51.9645163 80.5507812,52.3583984 C81.2096387,52.7522806 81.9544229,53.1425762 82.7851562,53.5292969 C83.6158896,53.9160176 84.2102847,54.2311186 84.5683594,54.4746094 C84.9264341,54.7181002 85.1054687,54.9830715 85.1054687,55.2695312 C85.0911458,55.3554692 85.0410161,55.5058583 84.9550781,55.7207031 C84.8691402,55.9355479 84.5397164,56.0358074 83.9667969,56.0214844 C83.0644486,56.0071614 81.9007233,55.7386094 80.4755859,55.2158203 C79.0504486,54.6930312 77.5465574,54.0449257 75.9638672,53.2714844 C74.381177,52.498043 73.400067,51.9072286 73.0205078,51.4990234 C72.6409486,51.0908183 72.4511719,50.6575544 72.4511719,50.1992188 L72.4511719,50.1992188 Z" id="抽奖" fill="#FFF7D8"></path>
            </g>
        </g>
    </g>
</svg>