<?xml version="1.0" encoding="UTF-8"?>
<svg width="276px" height="97px" viewBox="0 0 276 97" version="1.1" xmlns="http://www.w3.org/2000/svg" xmlns:xlink="http://www.w3.org/1999/xlink">
    <!-- Generator: Sketch 40 (33762) - http://www.bohemiancoding.com/sketch -->
    <title>Group</title>
    <desc>Created with Sketch.</desc>
    <defs>
        <path d="M9.46972656,22.8710937 C9.37206982,23.701176 9.079104,24.372556 8.59082031,24.8852539 C8.10253662,25.3979518 7.22363916,25.6298831 5.95410156,25.5810547 C5.31933276,25.5647786 4.90429785,25.4630543 4.70898437,25.2758789 C4.5136709,25.0887035 4.3387052,24.7753928 4.18408203,24.3359375 C4.02945886,23.8964822 3.96028638,23.2942747 3.9765625,22.5292969 C3.9765625,22.1712222 4.02539014,21.4794973 4.12304687,20.4541016 C4.22070361,19.4287058 4.31428992,18.1429114 4.40380859,16.5966797 C4.49332727,15.050448 4.55843079,13.7972053 4.59912109,12.8369141 C4.6398114,11.8766228 4.63574243,10.6884836 4.58691406,9.27246094 C4.55436182,8.83300562 4.51367212,8.243005 4.46484375,7.50244141 C4.41601538,6.76187781 4.3468429,6.2654635 4.25732422,6.01318359 C4.16780554,5.76090369 4.04166748,5.57780005 3.87890625,5.46386719 C3.71614502,5.34993433 3.3295929,5.33772742 2.71923828,5.42724609 C2.10888367,5.51676477 1.70198669,5.54117859 1.49853516,5.50048828 C1.29508362,5.45979797 1.10791101,5.30517712 0.937011719,5.03662109 C0.766112427,4.76806506 0.688802002,4.46289233 0.705078125,4.12109375 C0.753906494,3.47004883 1.08756201,2.91259998 1.70605469,2.44873047 C2.32454736,1.98486096 3.02441016,1.65934338 3.80566406,1.47216797 C4.58691797,1.28499255 5.2949187,1.15071655 5.9296875,1.06933594 C6.5644563,0.987955322 8.50128589,1.00830017 11.7402344,1.13037109 C14.9791829,1.25244202 16.704426,1.30533862 16.9160156,1.2890625 C18.1692771,1.2890625 19.7561753,1.22395898 21.6767578,1.09375 L25.7783203,0.825195312 C27.1129624,0.76009082 28.0406875,0.650228638 28.5615234,0.495605469 C29.0823594,0.3409823 29.4241528,0.279947754 29.5869141,0.3125 C29.717123,0.345052246 29.8269852,0.414224731 29.9165039,0.520019531 C30.0060226,0.625814331 30.0548502,0.817055908 30.0629883,1.09375 C30.0711263,1.37044409 29.9368503,1.73665137 29.6601562,2.19238281 C29.2858054,2.82715161 28.8870464,3.34797974 28.4638672,3.75488281 C28.040688,4.16178589 27.5686875,4.45882068 27.0478516,4.64599609 C26.5270156,4.83317151 25.9736357,4.92675781 25.3876953,4.92675781 C25.1923818,4.94303394 24.6918986,4.90641321 23.8862305,4.81689453 C23.0805624,4.72737585 22.1243545,4.65006543 21.0175781,4.58496094 L16.8183594,4.38964844 C16.2161428,4.37337231 15.7197285,4.37337231 15.3291016,4.38964844 L13.546875,4.51171875 C12.5052031,4.57682324 11.9355474,4.609375 11.8378906,4.609375 L10.6171875,4.82910156 C9.9824187,4.9267583 9.5795907,5.04882739 9.40869141,5.1953125 C9.23779211,5.34179761 9.11165405,5.59407373 9.03027344,5.95214844 L8.95703125,8.29589844 C8.85937451,9.69564502 8.82682275,10.4280596 8.859375,10.4931641 C8.89192725,10.6722014 8.96109973,10.8268223 9.06689453,10.9570312 C9.17268933,11.0872402 9.4453103,11.1686196 9.88476562,11.2011719 C10.5358105,11.2825525 11.4879495,11.2662766 12.7412109,11.1523437 C13.9944724,11.0384109 15.3657152,10.9529625 16.8549805,10.8959961 C18.3442457,10.8390297 19.5486608,10.7413744 20.4682617,10.6030273 C21.3878627,10.4646803 22.1406221,10.4077147 22.7265625,10.4321289 C23.3125029,10.4565431 23.8821587,10.7617158 24.4355469,11.3476562 C24.9889351,11.9335967 25.1679697,12.6415974 24.9726562,13.4716797 C24.8912756,13.780926 24.7163099,14.0820298 24.4477539,14.375 C24.1791979,14.6679702 23.6136111,14.8225911 22.7509766,14.8388672 C22.539387,14.8551433 22.2016625,14.8429364 21.737793,14.8022461 C21.2739235,14.7615558 20.3665432,14.7005212 19.015625,14.6191406 C17.6647068,14.53776 16.9078784,14.4889324 16.7451172,14.4726562 C16.1591768,14.4726562 15.182624,14.5214839 13.8154297,14.6191406 C12.4482354,14.7167974 11.4757516,14.8063147 10.8979492,14.8876953 C10.3201469,14.9690759 9.88476709,15.0219725 9.59179687,15.0463867 C9.29882666,15.0708009 9.11572302,15.1399734 9.04248047,15.2539062 C8.96923792,15.3678391 8.94075513,15.5468738 8.95703125,15.7910156 C8.95703125,16.2792993 9.00178992,16.9262655 9.09130859,17.7319336 C9.18082727,18.5376017 9.27441357,19.5141544 9.37207031,20.6616211 C9.46972705,21.8090878 9.50227881,22.5455713 9.46972656,22.8710937 L9.46972656,22.8710937 Z M38.6201172,12.3730469 C39.385095,11.7057258 40.0605439,11.1645529 40.6464844,10.7495117 C41.2324248,10.3344706 41.9648394,9.94791846 42.84375,9.58984375 C43.7226606,9.23176904 44.4713511,8.99169983 45.0898437,8.86962891 C45.7083364,8.74755798 46.3756475,8.6783855 47.0917969,8.66210937 C48.166021,8.66210937 49.2280221,8.7801095 50.277832,9.01611328 C51.327642,9.25211707 52.1699187,9.58170361 52.8046875,10.0048828 C53.4394563,10.428062 53.8056636,10.9041315 53.9033203,11.4331055 C54.0009771,11.9620795 53.8951838,12.425942 53.5859375,12.824707 C53.2766912,13.223472 52.9348977,13.4391274 52.5605469,13.4716797 C52.2350244,13.5205081 51.8444033,13.4228528 51.3886719,13.1787109 L49.9726562,12.3974609 C48.8496038,11.8603489 47.5963611,11.6406245 46.2128906,11.7382812 C45.33398,11.8196619 44.4428756,12.0271793 43.5395508,12.3608398 C42.636226,12.6945004 41.8468458,13.1013973 41.1713867,13.581543 C40.4959276,14.0616886 39.9588236,14.5825167 39.5600586,15.144043 C39.1612936,15.7055692 38.8764657,16.2019835 38.7055664,16.6333008 C38.5346671,17.064618 38.4736326,17.5325496 38.5224609,18.0371094 L38.6933594,20.0146484 L38.9375,22.0654297 C39.0351567,22.895512 39.0717775,23.4977195 39.0473633,23.8720703 C39.0229491,24.2464211 38.770673,24.5882146 38.2905273,24.8974609 C37.8103817,25.2067073 37.3587261,25.4020178 36.9355469,25.4833984 C36.5123677,25.5647791 35.9427119,25.6054688 35.2265625,25.6054688 C34.494137,25.6217449 33.948895,25.4996758 33.5908203,25.2392578 C33.2327456,24.9788398 33.0781248,24.5312532 33.1269531,23.8964844 L33.3955078,22.7490234 L33.7128906,20.8691406 L33.8837891,19.3554688 L33.9814453,16.5234375 L33.9082031,14.7167969 L33.3955078,11.9580078 C33.3792317,11.9254556 33.2612316,11.7057312 33.0415039,11.2988281 C32.8217762,10.891925 32.7363279,10.501304 32.7851562,10.1269531 C32.8177085,9.8990874 32.9723293,9.62239746 33.2490234,9.296875 C33.5257175,8.97135254 34.1604768,8.75162817 35.1533203,8.63769531 C36.1461638,8.52376245 36.8948542,8.44238306 37.3994141,8.39355469 C37.9039739,8.34472632 38.2742501,8.42610571 38.5102539,8.63769531 C38.7462577,8.84928491 38.8561199,9.0120437 38.8398437,9.12597656 L38.4003906,11.4941406 C38.3678384,11.673178 38.3474935,11.8277988 38.3393555,11.9580078 C38.3312174,12.0882168 38.3678381,12.1777341 38.4492187,12.2265625 L38.6201172,12.3730469 Z M62.5458984,18.9648437 C62.7412119,19.3717468 62.9690742,19.7379541 63.2294922,20.0634766 C63.4899102,20.388999 63.9252899,20.7674132 64.5356445,21.1987305 C65.1459991,21.6300477 65.9435172,22.0043929 66.9282227,22.3217773 C67.9129281,22.6391617 69.0563086,22.8059895 70.3583984,22.8222656 C72.2301526,22.871094 73.8373956,22.6920593 75.1801758,22.2851562 C76.5229559,21.8782532 77.4791638,21.5364597 78.0488281,21.2597656 C78.6184924,20.9830715 79.3102173,20.5598987 80.1240234,19.9902344 C80.9378296,19.4205701 81.426106,19.0177421 81.5888672,18.7817383 C81.7516284,18.5457345 81.8655596,18.4155275 81.9306641,18.3911133 C81.9957686,18.3666991 82.0771479,18.3463542 82.1748047,18.3300781 C82.3701182,18.313802 82.5491528,18.3341469 82.7119141,18.3911133 C82.8746753,18.4480797 83.0374341,18.5701488 83.2001953,18.7573242 C83.3629565,18.9444996 83.4768877,19.3229138 83.5419922,19.8925781 C83.6070967,20.4622424 83.2815791,21.1783811 82.5654297,22.0410156 C81.9957654,22.7408889 81.2023163,23.3675103 80.1850586,23.9208984 C79.1678009,24.4742866 77.8697996,24.9096664 76.2910156,25.2270508 C74.7122317,25.5444352 72.8486436,25.703125 70.7001953,25.703125 C68.1611201,25.7194011 66.167325,25.4956078 64.71875,25.0317383 C63.270175,24.5678688 62.0128634,23.9209026 60.9467773,23.0908203 C59.8806913,22.260738 59.1645526,21.3818406 58.7983398,20.4541016 C58.4321271,19.5263625 58.2652993,18.4521545 58.2978516,17.2314453 C58.3304038,16.0432883 58.570473,14.9446665 59.0180664,13.9355469 C59.4656598,12.9264272 60.2591089,11.9498745 61.3984375,11.0058594 C62.5377661,10.0618442 64.0636298,9.31722278 65.9760742,8.77197266 C67.8885187,8.22672253 69.8863828,7.9622395 71.9697266,7.97851562 C73.4671299,8.01106787 74.9929935,8.2226543 76.5473633,8.61328125 C78.101733,9.0039082 79.3061481,9.54508118 80.1606445,10.2368164 C81.015141,10.9285516 81.6254865,11.5104143 81.9916992,11.9824219 C82.357912,12.4544294 82.6590157,12.9874645 82.8950195,13.581543 C83.1310233,14.1756215 83.2612303,14.6028633 83.2856445,14.8632812 C83.3100587,15.1236992 83.0699895,15.5143203 82.5654297,16.0351562 C82.2887356,16.3281265 82.0079767,16.5519198 81.7231445,16.706543 C81.4383124,16.8611661 81.0151395,17.019856 80.4536133,17.1826172 C79.892087,17.3453784 79.0905,17.4430337 78.0488281,17.4755859 C77.2187458,17.5081382 76.1648827,17.4959313 74.887207,17.4389648 C73.6095314,17.3819984 72.7835305,17.3453777 72.4091797,17.3291016 C71.6116497,17.3291016 70.5130278,17.3697913 69.1132812,17.4511719 C67.7135347,17.5325525 66.6352577,17.6098629 65.878418,17.6831055 C65.1215782,17.756348 64.4746121,17.7848308 63.9375,17.7685547 C63.4003879,17.7522786 63.0219738,17.7929683 62.8022461,17.890625 C62.5825184,17.9882817 62.4360355,18.1022129 62.362793,18.2324219 C62.2895504,18.3626309 62.350585,18.606769 62.5458984,18.9648437 L62.5458984,18.9648437 Z M78.4882812,14.5947266 C78.5696619,14.4807937 78.4964204,14.1471382 78.2685547,13.59375 C78.040689,13.0403618 77.5483436,12.5317406 76.7915039,12.0678711 C76.0346642,11.6040016 75.1761116,11.2459323 74.2158203,10.9936523 C73.2555291,10.7413724 72.4010454,10.6070964 71.6523437,10.5908203 C71.1477839,10.5908203 70.4601281,10.6437169 69.5893555,10.7495117 C68.7185829,10.8553065 67.8071337,11.054686 66.8549805,11.3476562 C65.9028273,11.6406265 65.0442747,12.1614546 64.2792969,12.9101562 L63.4980469,13.7402344 C63.0097632,14.2447942 62.7819009,14.6272773 62.8144531,14.8876953 C62.8144531,15.0179043 62.8510739,15.1277665 62.9243164,15.2172852 C62.997559,15.3068038 63.257973,15.3108728 63.7055664,15.2294922 C64.1531598,15.1481116 64.9140571,15.1236978 65.9882812,15.15625 L72.4091797,14.9853516 C75.1435684,14.9853516 76.8321908,14.932455 77.4750977,14.8266602 C78.1180045,14.7208654 78.455729,14.6435549 78.4882812,14.5947266 L78.4882812,14.5947266 Z M92.2333984,18.9648437 C92.4287119,19.3717468 92.6565742,19.7379541 92.9169922,20.0634766 C93.1774102,20.388999 93.6127899,20.7674132 94.2231445,21.1987305 C94.8334991,21.6300477 95.6310172,22.0043929 96.6157227,22.3217773 C97.6004281,22.6391617 98.7438086,22.8059895 100.045898,22.8222656 C101.917653,22.871094 103.524896,22.6920593 104.867676,22.2851562 C106.210456,21.8782532 107.166664,21.5364597 107.736328,21.2597656 C108.305992,20.9830715 108.997717,20.5598987 109.811523,19.9902344 C110.62533,19.4205701 111.113606,19.0177421 111.276367,18.7817383 C111.439128,18.5457345 111.55306,18.4155275 111.618164,18.3911133 C111.683269,18.3666991 111.764648,18.3463542 111.862305,18.3300781 C112.057618,18.313802 112.236653,18.3341469 112.399414,18.3911133 C112.562175,18.4480797 112.724934,18.5701488 112.887695,18.7573242 C113.050457,18.9444996 113.164388,19.3229138 113.229492,19.8925781 C113.294597,20.4622424 112.969079,21.1783811 112.25293,22.0410156 C111.683265,22.7408889 110.889816,23.3675103 109.872559,23.9208984 C108.855301,24.4742866 107.5573,24.9096664 105.978516,25.2270508 C104.399732,25.5444352 102.536144,25.703125 100.387695,25.703125 C97.8486201,25.7194011 95.854825,25.4956078 94.40625,25.0317383 C92.957675,24.5678688 91.7003634,23.9209026 90.6342773,23.0908203 C89.5681913,22.260738 88.8520526,21.3818406 88.4858398,20.4541016 C88.1196271,19.5263625 87.9527993,18.4521545 87.9853516,17.2314453 C88.0179038,16.0432883 88.257973,14.9446665 88.7055664,13.9355469 C89.1531598,12.9264272 89.9466089,11.9498745 91.0859375,11.0058594 C92.2252661,10.0618442 93.7511298,9.31722278 95.6635742,8.77197266 C97.5760187,8.22672253 99.5738828,7.9622395 101.657227,7.97851562 C103.15463,8.01106787 104.680494,8.2226543 106.234863,8.61328125 C107.789233,9.0039082 108.993648,9.54508118 109.848145,10.2368164 C110.702641,10.9285516 111.312986,11.5104143 111.679199,11.9824219 C112.045412,12.4544294 112.346516,12.9874645 112.58252,13.581543 C112.818523,14.1756215 112.94873,14.6028633 112.973145,14.8632812 C112.997559,15.1236992 112.75749,15.5143203 112.25293,16.0351562 C111.976236,16.3281265 111.695477,16.5519198 111.410645,16.706543 C111.125812,16.8611661 110.70264,17.019856 110.141113,17.1826172 C109.579587,17.3453784 108.778,17.4430337 107.736328,17.4755859 C106.906246,17.5081382 105.852383,17.4959313 104.574707,17.4389648 C103.297031,17.3819984 102.471031,17.3453777 102.09668,17.3291016 C101.29915,17.3291016 100.200528,17.3697913 98.8007812,17.4511719 C97.4010347,17.5325525 96.3227577,17.6098629 95.565918,17.6831055 C94.8090782,17.756348 94.1621121,17.7848308 93.625,17.7685547 C93.0878879,17.7522786 92.7094738,17.7929683 92.4897461,17.890625 C92.2700184,17.9882817 92.1235355,18.1022129 92.050293,18.2324219 C91.9770504,18.3626309 92.038085,18.606769 92.2333984,18.9648437 L92.2333984,18.9648437 Z M108.175781,14.5947266 C108.257162,14.4807937 108.18392,14.1471382 107.956055,13.59375 C107.728189,13.0403618 107.235844,12.5317406 106.479004,12.0678711 C105.722164,11.6040016 104.863612,11.2459323 103.90332,10.9936523 C102.943029,10.7413724 102.088545,10.6070964 101.339844,10.5908203 C100.835284,10.5908203 100.147628,10.6437169 99.2768555,10.7495117 C98.4060829,10.8553065 97.4946337,11.054686 96.5424805,11.3476562 C95.5903273,11.6406265 94.7317747,12.1614546 93.9667969,12.9101562 L93.1855469,13.7402344 C92.6972632,14.2447942 92.4694009,14.6272773 92.5019531,14.8876953 C92.5019531,15.0179043 92.5385739,15.1277665 92.6118164,15.2172852 C92.685059,15.3068038 92.945473,15.3108728 93.3930664,15.2294922 C93.8406598,15.1481116 94.6015571,15.1236978 95.6757812,15.15625 L102.09668,14.9853516 C104.831068,14.9853516 106.519691,14.932455 107.162598,14.8266602 C107.805505,14.7208654 108.143229,14.6435549 108.175781,14.5947266 L108.175781,14.5947266 Z M125.729492,9.80957031 C125.778321,8.6702417 125.794596,7.82796497 125.77832,7.28271484 C125.762044,6.73746472 125.713217,6.25732629 125.631836,5.84228516 C125.550455,5.42724402 125.448731,5.06917468 125.32666,4.76806641 C125.204589,4.46695813 125.037761,4.14957849 124.826172,3.81591797 C124.614582,3.48225745 124.516927,3.23405029 124.533203,3.07128906 C124.533203,2.89225171 124.675617,2.66032043 124.960449,2.37548828 C125.245281,2.09065613 125.639971,1.88720764 126.144531,1.76513672 C126.649091,1.6430658 127.210609,1.60644507 127.829102,1.65527344 C128.952154,1.75293018 129.95719,2.1394823 130.844238,2.81494141 C131.731287,3.49040051 132.166667,4.14550464 132.150391,4.78027344 C132.134115,4.91048242 131.898114,5.39062085 131.442383,6.22070312 C130.986651,7.0507854 130.685548,7.92968286 130.539062,8.85742187 C130.392577,9.78516089 130.30306,10.436196 130.270508,10.8105469 C130.156575,11.9498755 130.201334,13.4065667 130.404785,15.1806641 C130.608237,16.9547615 130.677409,18.1510386 130.612305,18.7695312 C130.5472,19.3066433 130.441407,19.6687816 130.294922,19.855957 C130.148437,20.0431324 129.912437,20.238443 129.586914,20.4418945 C129.261392,20.6453461 128.899253,20.8243807 128.500488,20.9790039 C128.101723,21.1336271 127.519861,21.0319028 126.754883,20.6738281 C126.445636,20.5436191 126.091636,20.3116879 125.692871,19.9780273 C125.294106,19.6443668 125.054037,19.3066423 124.972656,18.9648437 C124.891276,18.6230452 124.931965,18.0208376 125.094727,17.1582031 C125.143555,16.8652329 125.233072,15.9822665 125.363281,14.5092773 C125.49349,13.0362882 125.566732,12.2102874 125.583008,12.03125 C125.599284,11.8522126 125.648112,11.1116602 125.729492,9.80957031 L125.729492,9.80957031 Z M127.853516,22.3828125 C128.488284,22.3990886 129.110837,22.5659164 129.721191,22.8833008 C130.331546,23.2006852 130.811684,23.6686167 131.161621,24.2871094 C131.511558,24.9056021 131.690592,25.5566372 131.69873,26.2402344 C131.706869,26.9238315 131.540041,27.5585908 131.198242,28.1445312 C130.840167,28.7467478 130.364098,29.2146793 129.77002,29.5483398 C129.175941,29.8820004 128.537113,30.0488281 127.853516,30.0488281 C127.153642,30.0651042 126.510745,29.9064144 125.924805,29.5727539 C125.338864,29.2390934 124.875002,28.7670929 124.533203,28.1567383 C124.191405,27.5463837 124.020508,26.8994175 124.020508,26.2158203 C124.020508,25.5647754 124.195474,24.9259471 124.54541,24.2993164 C124.895347,23.6726857 125.371416,23.1966162 125.973633,22.8710937 C126.575849,22.5455713 127.202471,22.3828125 127.853516,22.3828125 L127.853516,22.3828125 Z M150.900391,22.8710937 C150.802734,23.701176 150.509768,24.372556 150.021484,24.8852539 C149.533201,25.3979518 148.654303,25.6298831 147.384766,25.5810547 C146.749997,25.5647786 146.334962,25.4630543 146.139648,25.2758789 C145.944335,25.0887035 145.769369,24.7753928 145.614746,24.3359375 C145.460123,23.8964822 145.39095,23.2942747 145.407227,22.5292969 C145.407227,22.1712222 145.456054,21.4794973 145.553711,20.4541016 C145.651368,19.4287058 145.744954,18.1429114 145.834473,16.5966797 C145.923991,15.050448 145.989095,13.7972053 146.029785,12.8369141 C146.070475,11.8766228 146.066406,10.6884836 146.017578,9.27246094 C145.985026,8.83300562 145.944336,8.243005 145.895508,7.50244141 C145.846679,6.76187781 145.777507,6.2654635 145.687988,6.01318359 C145.59847,5.76090369 145.472332,5.57780005 145.30957,5.46386719 C145.146809,5.34993433 144.760257,5.33772742 144.149902,5.42724609 C143.539548,5.51676477 143.132651,5.54117859 142.929199,5.50048828 C142.725748,5.45979797 142.538575,5.30517712 142.367676,5.03662109 C142.196776,4.76806506 142.119466,4.46289233 142.135742,4.12109375 C142.184571,3.47004883 142.518226,2.91259998 143.136719,2.44873047 C143.755211,1.98486096 144.455074,1.65934338 145.236328,1.47216797 C146.017582,1.28499255 146.725583,1.15071655 147.360352,1.06933594 C147.99512,0.987955322 149.93195,1.00830017 153.170898,1.13037109 C156.409847,1.25244202 158.13509,1.30533862 158.34668,1.2890625 C159.599941,1.2890625 161.186839,1.22395898 163.107422,1.09375 L167.208984,0.825195312 C168.543626,0.76009082 169.471352,0.650228638 169.992187,0.495605469 C170.513023,0.3409823 170.854817,0.279947754 171.017578,0.3125 C171.147787,0.345052246 171.257649,0.414224731 171.347168,0.520019531 C171.436687,0.625814331 171.485514,0.817055908 171.493652,1.09375 C171.50179,1.37044409 171.367514,1.73665137 171.09082,2.19238281 C170.716469,2.82715161 170.31771,3.34797974 169.894531,3.75488281 C169.471352,4.16178589 168.999352,4.45882068 168.478516,4.64599609 C167.95768,4.83317151 167.4043,4.92675781 166.818359,4.92675781 C166.623046,4.94303394 166.122563,4.90641321 165.316895,4.81689453 C164.511226,4.72737585 163.555019,4.65006543 162.448242,4.58496094 L158.249023,4.38964844 C157.646807,4.37337231 157.150393,4.37337231 156.759766,4.38964844 L154.977539,4.51171875 C153.935867,4.57682324 153.366211,4.609375 153.268555,4.609375 L152.047852,4.82910156 C151.413083,4.9267583 151.010255,5.04882739 150.839355,5.1953125 C150.668456,5.34179761 150.542318,5.59407373 150.460937,5.95214844 L150.387695,8.29589844 C150.290039,9.69564502 150.257487,10.4280596 150.290039,10.4931641 C150.322591,10.6722014 150.391764,10.8268223 150.497559,10.9570312 C150.603353,11.0872402 150.875974,11.1686196 151.31543,11.2011719 C151.966475,11.2825525 152.918614,11.2662766 154.171875,11.1523437 C155.425136,11.0384109 156.796379,10.9529625 158.285645,10.8959961 C159.77491,10.8390297 160.979325,10.7413744 161.898926,10.6030273 C162.818527,10.4646803 163.571286,10.4077147 164.157227,10.4321289 C164.743167,10.4565431 165.312823,10.7617158 165.866211,11.3476562 C166.419599,11.9335967 166.598634,12.6415974 166.40332,13.4716797 C166.32194,13.780926 166.146974,14.0820298 165.878418,14.375 C165.609862,14.6679702 165.044275,14.8225911 164.181641,14.8388672 C163.970051,14.8551433 163.632327,14.8429364 163.168457,14.8022461 C162.704588,14.7615558 161.797207,14.7005212 160.446289,14.6191406 C159.095371,14.53776 158.338542,14.4889324 158.175781,14.4726562 C157.589841,14.4726562 156.613288,14.5214839 155.246094,14.6191406 C153.878899,14.7167974 152.906416,14.8063147 152.328613,14.8876953 C151.750811,14.9690759 151.315431,15.0219725 151.022461,15.0463867 C150.729491,15.0708009 150.546387,15.1399734 150.473145,15.2539062 C150.399902,15.3678391 150.371419,15.5468738 150.387695,15.7910156 C150.387695,16.2792993 150.432454,16.9262655 150.521973,17.7319336 C150.611491,18.5376017 150.705078,19.5141544 150.802734,20.6616211 C150.900391,21.8090878 150.932943,22.5455713 150.900391,22.8710937 L150.900391,22.8710937 Z M180.050781,12.3730469 C180.815759,11.7057258 181.491208,11.1645529 182.077148,10.7495117 C182.663089,10.3344706 183.395503,9.94791846 184.274414,9.58984375 C185.153325,9.23176904 185.902015,8.99169983 186.520508,8.86962891 C187.139,8.74755798 187.806312,8.6783855 188.522461,8.66210937 C189.596685,8.66210937 190.658686,8.7801095 191.708496,9.01611328 C192.758306,9.25211707 193.600583,9.58170361 194.235352,10.0048828 C194.87012,10.428062 195.236328,10.9041315 195.333984,11.4331055 C195.431641,11.9620795 195.325848,12.425942 195.016602,12.824707 C194.707355,13.223472 194.365562,13.4391274 193.991211,13.4716797 C193.665688,13.5205081 193.275067,13.4228528 192.819336,13.1787109 L191.40332,12.3974609 C190.280268,11.8603489 189.027025,11.6406245 187.643555,11.7382812 C186.764644,11.8196619 185.87354,12.0271793 184.970215,12.3608398 C184.06689,12.6945004 183.27751,13.1013973 182.602051,13.581543 C181.926592,14.0616886 181.389488,14.5825167 180.990723,15.144043 C180.591958,15.7055692 180.30713,16.2019835 180.13623,16.6333008 C179.965331,17.064618 179.904297,17.5325496 179.953125,18.0371094 L180.124023,20.0146484 L180.368164,22.0654297 C180.465821,22.895512 180.502442,23.4977195 180.478027,23.8720703 C180.453613,24.2464211 180.201337,24.5882146 179.721191,24.8974609 C179.241046,25.2067073 178.78939,25.4020178 178.366211,25.4833984 C177.943032,25.5647791 177.373376,25.6054688 176.657227,25.6054688 C175.924801,25.6217449 175.379559,25.4996758 175.021484,25.2392578 C174.66341,24.9788398 174.508789,24.5312532 174.557617,23.8964844 L174.826172,22.7490234 L175.143555,20.8691406 L175.314453,19.3554688 L175.412109,16.5234375 L175.338867,14.7167969 L174.826172,11.9580078 C174.809896,11.9254556 174.691896,11.7057312 174.472168,11.2988281 C174.25244,10.891925 174.166992,10.501304 174.21582,10.1269531 C174.248373,9.8990874 174.402993,9.62239746 174.679687,9.296875 C174.956382,8.97135254 175.591141,8.75162817 176.583984,8.63769531 C177.576828,8.52376245 178.325518,8.44238306 178.830078,8.39355469 C179.334638,8.34472632 179.704914,8.42610571 179.940918,8.63769531 C180.176922,8.84928491 180.286784,9.0120437 180.270508,9.12597656 L179.831055,11.4941406 C179.798502,11.673178 179.778158,11.8277988 179.77002,11.9580078 C179.761881,12.0882168 179.798502,12.1777341 179.879883,12.2265625 L180.050781,12.3730469 Z M203.976562,18.9648437 C204.171876,19.3717468 204.399738,19.7379541 204.660156,20.0634766 C204.920574,20.388999 205.355954,20.7674132 205.966309,21.1987305 C206.576663,21.6300477 207.374181,22.0043929 208.358887,22.3217773 C209.343592,22.6391617 210.486973,22.8059895 211.789062,22.8222656 C213.660817,22.871094 215.26806,22.6920593 216.61084,22.2851562 C217.95362,21.8782532 218.909828,21.5364597 219.479492,21.2597656 C220.049156,20.9830715 220.740881,20.5598987 221.554687,19.9902344 C222.368494,19.4205701 222.85677,19.0177421 223.019531,18.7817383 C223.182292,18.5457345 223.296224,18.4155275 223.361328,18.3911133 C223.426433,18.3666991 223.507812,18.3463542 223.605469,18.3300781 C223.800782,18.313802 223.979817,18.3341469 224.142578,18.3911133 C224.305339,18.4480797 224.468098,18.5701488 224.630859,18.7573242 C224.793621,18.9444996 224.907552,19.3229138 224.972656,19.8925781 C225.037761,20.4622424 224.712243,21.1783811 223.996094,22.0410156 C223.426429,22.7408889 222.63298,23.3675103 221.615723,23.9208984 C220.598465,24.4742866 219.300464,24.9096664 217.72168,25.2270508 C216.142896,25.5444352 214.279308,25.703125 212.130859,25.703125 C209.591784,25.7194011 207.597989,25.4956078 206.149414,25.0317383 C204.700839,24.5678688 203.443527,23.9209026 202.377441,23.0908203 C201.311355,22.260738 200.595217,21.3818406 200.229004,20.4541016 C199.862791,19.5263625 199.695963,18.4521545 199.728516,17.2314453 C199.761068,16.0432883 200.001137,14.9446665 200.44873,13.9355469 C200.896324,12.9264272 201.689773,11.9498745 202.829102,11.0058594 C203.96843,10.0618442 205.494294,9.31722278 207.406738,8.77197266 C209.319183,8.22672253 211.317047,7.9622395 213.400391,7.97851562 C214.897794,8.01106787 216.423658,8.2226543 217.978027,8.61328125 C219.532397,9.0039082 220.736812,9.54508118 221.591309,10.2368164 C222.445805,10.9285516 223.056151,11.5104143 223.422363,11.9824219 C223.788576,12.4544294 224.08968,12.9874645 224.325684,13.581543 C224.561687,14.1756215 224.691894,14.6028633 224.716309,14.8632812 C224.740723,15.1236992 224.500654,15.5143203 223.996094,16.0351562 C223.7194,16.3281265 223.438641,16.5519198 223.153809,16.706543 C222.868976,16.8611661 222.445804,17.019856 221.884277,17.1826172 C221.322751,17.3453784 220.521164,17.4430337 219.479492,17.4755859 C218.64941,17.5081382 217.595547,17.4959313 216.317871,17.4389648 C215.040195,17.3819984 214.214195,17.3453777 213.839844,17.3291016 C213.042314,17.3291016 211.943692,17.3697913 210.543945,17.4511719 C209.144199,17.5325525 208.065922,17.6098629 207.309082,17.6831055 C206.552242,17.756348 205.905276,17.7848308 205.368164,17.7685547 C204.831052,17.7522786 204.452638,17.7929683 204.23291,17.890625 C204.013182,17.9882817 203.8667,18.1022129 203.793457,18.2324219 C203.720214,18.3626309 203.781249,18.606769 203.976562,18.9648437 L203.976562,18.9648437 Z M219.918945,14.5947266 C220.000326,14.4807937 219.927084,14.1471382 219.699219,13.59375 C219.471353,13.0403618 218.979008,12.5317406 218.222168,12.0678711 C217.465328,11.6040016 216.606776,11.2459323 215.646484,10.9936523 C214.686193,10.7413724 213.831709,10.6070964 213.083008,10.5908203 C212.578448,10.5908203 211.890792,10.6437169 211.02002,10.7495117 C210.149247,10.8553065 209.237798,11.054686 208.285645,11.3476562 C207.333491,11.6406265 206.474939,12.1614546 205.709961,12.9101562 L204.928711,13.7402344 C204.440427,14.2447942 204.212565,14.6272773 204.245117,14.8876953 C204.245117,15.0179043 204.281738,15.1277665 204.35498,15.2172852 C204.428223,15.3068038 204.688637,15.3108728 205.13623,15.2294922 C205.583824,15.1481116 206.344721,15.1236978 207.418945,15.15625 L213.839844,14.9853516 C216.574232,14.9853516 218.262855,14.932455 218.905762,14.8266602 C219.548669,14.7208654 219.886393,14.6435549 219.918945,14.5947266 L219.918945,14.5947266 Z M233.664062,18.9648437 C233.859376,19.3717468 234.087238,19.7379541 234.347656,20.0634766 C234.608074,20.388999 235.043454,20.7674132 235.653809,21.1987305 C236.264163,21.6300477 237.061681,22.0043929 238.046387,22.3217773 C239.031092,22.6391617 240.174473,22.8059895 241.476562,22.8222656 C243.348317,22.871094 244.95556,22.6920593 246.29834,22.2851562 C247.64112,21.8782532 248.597328,21.5364597 249.166992,21.2597656 C249.736656,20.9830715 250.428381,20.5598987 251.242187,19.9902344 C252.055994,19.4205701 252.54427,19.0177421 252.707031,18.7817383 C252.869792,18.5457345 252.983724,18.4155275 253.048828,18.3911133 C253.113933,18.3666991 253.195312,18.3463542 253.292969,18.3300781 C253.488282,18.313802 253.667317,18.3341469 253.830078,18.3911133 C253.992839,18.4480797 254.155598,18.5701488 254.318359,18.7573242 C254.481121,18.9444996 254.595052,19.3229138 254.660156,19.8925781 C254.725261,20.4622424 254.399743,21.1783811 253.683594,22.0410156 C253.113929,22.7408889 252.32048,23.3675103 251.303223,23.9208984 C250.285965,24.4742866 248.987964,24.9096664 247.40918,25.2270508 C245.830396,25.5444352 243.966808,25.703125 241.818359,25.703125 C239.279284,25.7194011 237.285489,25.4956078 235.836914,25.0317383 C234.388339,24.5678688 233.131027,23.9209026 232.064941,23.0908203 C230.998855,22.260738 230.282717,21.3818406 229.916504,20.4541016 C229.550291,19.5263625 229.383463,18.4521545 229.416016,17.2314453 C229.448568,16.0432883 229.688637,14.9446665 230.13623,13.9355469 C230.583824,12.9264272 231.377273,11.9498745 232.516602,11.0058594 C233.65593,10.0618442 235.181794,9.31722278 237.094238,8.77197266 C239.006683,8.22672253 241.004547,7.9622395 243.087891,7.97851562 C244.585294,8.01106787 246.111158,8.2226543 247.665527,8.61328125 C249.219897,9.0039082 250.424312,9.54508118 251.278809,10.2368164 C252.133305,10.9285516 252.743651,11.5104143 253.109863,11.9824219 C253.476076,12.4544294 253.77718,12.9874645 254.013184,13.581543 C254.249187,14.1756215 254.379394,14.6028633 254.403809,14.8632812 C254.428223,15.1236992 254.188154,15.5143203 253.683594,16.0351562 C253.4069,16.3281265 253.126141,16.5519198 252.841309,16.706543 C252.556476,16.8611661 252.133304,17.019856 251.571777,17.1826172 C251.010251,17.3453784 250.208664,17.4430337 249.166992,17.4755859 C248.33691,17.5081382 247.283047,17.4959313 246.005371,17.4389648 C244.727695,17.3819984 243.901695,17.3453777 243.527344,17.3291016 C242.729814,17.3291016 241.631192,17.3697913 240.231445,17.4511719 C238.831699,17.5325525 237.753422,17.6098629 236.996582,17.6831055 C236.239742,17.756348 235.592776,17.7848308 235.055664,17.7685547 C234.518552,17.7522786 234.140138,17.7929683 233.92041,17.890625 C233.700682,17.9882817 233.5542,18.1022129 233.480957,18.2324219 C233.407714,18.3626309 233.468749,18.606769 233.664062,18.9648437 L233.664062,18.9648437 Z M249.606445,14.5947266 C249.687826,14.4807937 249.614584,14.1471382 249.386719,13.59375 C249.158853,13.0403618 248.666508,12.5317406 247.909668,12.0678711 C247.152828,11.6040016 246.294276,11.2459323 245.333984,10.9936523 C244.373693,10.7413724 243.519209,10.6070964 242.770508,10.5908203 C242.265948,10.5908203 241.578292,10.6437169 240.70752,10.7495117 C239.836747,10.8553065 238.925298,11.054686 237.973145,11.3476562 C237.020991,11.6406265 236.162439,12.1614546 235.397461,12.9101562 L234.616211,13.7402344 C234.127927,14.2447942 233.900065,14.6272773 233.932617,14.8876953 C233.932617,15.0179043 233.969238,15.1277665 234.04248,15.2172852 C234.115723,15.3068038 234.376137,15.3108728 234.82373,15.2294922 C235.271324,15.1481116 236.032221,15.1236978 237.106445,15.15625 L243.527344,14.9853516 C246.261732,14.9853516 247.950355,14.932455 248.593262,14.8266602 C249.236169,14.7208654 249.573893,14.6435549 249.606445,14.5947266 L249.606445,14.5947266 Z M267.160156,9.80957031 C267.208985,8.6702417 267.22526,7.82796497 267.208984,7.28271484 C267.192708,6.73746472 267.143881,6.25732629 267.0625,5.84228516 C266.981119,5.42724402 266.879395,5.06917468 266.757324,4.76806641 C266.635253,4.46695813 266.468426,4.14957849 266.256836,3.81591797 C266.045246,3.48225745 265.947591,3.23405029 265.963867,3.07128906 C265.963867,2.89225171 266.106281,2.66032043 266.391113,2.37548828 C266.675945,2.09065613 267.070635,1.88720764 267.575195,1.76513672 C268.079755,1.6430658 268.641273,1.60644507 269.259766,1.65527344 C270.382818,1.75293018 271.387854,2.1394823 272.274902,2.81494141 C273.161951,3.49040051 273.597331,4.14550464 273.581055,4.78027344 C273.564779,4.91048242 273.328778,5.39062085 272.873047,6.22070312 C272.417315,7.0507854 272.116212,7.92968286 271.969727,8.85742187 C271.823241,9.78516089 271.733724,10.436196 271.701172,10.8105469 C271.587239,11.9498755 271.631998,13.4065667 271.835449,15.1806641 C272.038901,16.9547615 272.108073,18.1510386 272.042969,18.7695312 C271.977864,19.3066433 271.872071,19.6687816 271.725586,19.855957 C271.579101,20.0431324 271.343101,20.238443 271.017578,20.4418945 C270.692056,20.6453461 270.329917,20.8243807 269.931152,20.9790039 C269.532387,21.1336271 268.950525,21.0319028 268.185547,20.6738281 C267.876301,20.5436191 267.5223,20.3116879 267.123535,19.9780273 C266.72477,19.6443668 266.484701,19.3066423 266.40332,18.9648437 C266.32194,18.6230452 266.362629,18.0208376 266.525391,17.1582031 C266.574219,16.8652329 266.663736,15.9822665 266.793945,14.5092773 C266.924154,13.0362882 266.997396,12.2102874 267.013672,12.03125 C267.029948,11.8522126 267.078776,11.1116602 267.160156,9.80957031 L267.160156,9.80957031 Z M269.28418,22.3828125 C269.918948,22.3990886 270.541501,22.5659164 271.151855,22.8833008 C271.76221,23.2006852 272.242349,23.6686167 272.592285,24.2871094 C272.942222,24.9056021 273.121256,25.5566372 273.129395,26.2402344 C273.137533,26.9238315 272.970705,27.5585908 272.628906,28.1445312 C272.270832,28.7467478 271.794762,29.2146793 271.200684,29.5483398 C270.606605,29.8820004 269.967777,30.0488281 269.28418,30.0488281 C268.584306,30.0651042 267.941409,29.9064144 267.355469,29.5727539 C266.769528,29.2390934 266.305666,28.7670929 265.963867,28.1567383 C265.622069,27.5463837 265.451172,26.8994175 265.451172,26.2158203 C265.451172,25.5647754 265.626138,24.9259471 265.976074,24.2993164 C266.326011,23.6726857 266.80208,23.1966162 267.404297,22.8710937 C268.006513,22.5455713 268.633135,22.3828125 269.28418,22.3828125 L269.28418,22.3828125 Z M80.1850586,60.8710937 C80.0874019,61.701176 79.794436,62.372556 79.3061523,62.8852539 C78.8178687,63.3979518 77.9389712,63.6298831 76.6694336,63.5810547 C76.0346648,63.5647786 75.6196299,63.4630543 75.4243164,63.2758789 C75.2290029,63.0887035 75.0540372,62.7753928 74.8994141,62.3359375 C74.7447909,61.8964822 74.6756184,61.2942747 74.6918945,60.5292969 C74.6918945,60.1712222 74.7407222,59.4794973 74.8383789,58.4541016 C74.9360356,57.4287058 75.0296219,56.1429114 75.1191406,54.5966797 C75.2086593,53.050448 75.2737628,51.7972053 75.3144531,50.8369141 C75.3551434,49.8766228 75.3510745,48.6884836 75.3022461,47.2724609 C75.2696938,46.8330056 75.2290042,46.243005 75.1801758,45.5024414 C75.1313474,44.7618778 75.0621749,44.2654635 74.9726562,44.0131836 C74.8831376,43.7609037 74.7569995,43.5778 74.5942383,43.4638672 C74.4314771,43.3499343 74.0449249,43.3377274 73.4345703,43.4272461 C72.8242157,43.5167648 72.4173187,43.5411786 72.2138672,43.5004883 C72.0104156,43.459798 71.823243,43.3051771 71.6523437,43.0366211 C71.4814445,42.7680651 71.404134,42.4628923 71.4204102,42.1210937 C71.4692385,41.4700488 71.802894,40.9126 72.4213867,40.4487305 C73.0398794,39.984861 73.7397422,39.6593434 74.5209961,39.472168 C75.30225,39.2849926 76.0102507,39.1507166 76.6450195,39.0693359 C77.2797883,38.9879553 79.2166179,39.0083002 82.4555664,39.1303711 C85.6945149,39.252442 87.4197581,39.3053386 87.6313477,39.2890625 C88.8846091,39.2890625 90.4715073,39.223959 92.3920898,39.09375 L96.4936523,38.8251953 C97.8282944,38.7600908 98.7560195,38.6502286 99.2768555,38.4956055 C99.7976914,38.3409823 100.139485,38.2799478 100.302246,38.3125 C100.432455,38.3450522 100.542317,38.4142247 100.631836,38.5200195 C100.721355,38.6258143 100.770182,38.8170559 100.77832,39.09375 C100.786458,39.3704441 100.652182,39.7366514 100.375488,40.1923828 C100.001137,40.8271516 99.6023784,41.3479797 99.1791992,41.7548828 C98.75602,42.1617859 98.2840195,42.4588207 97.7631836,42.6459961 C97.2423477,42.8331715 96.6889678,42.9267578 96.1030273,42.9267578 C95.9077139,42.9430339 95.4072306,42.9064132 94.6015625,42.8168945 C93.7958944,42.7273759 92.8396865,42.6500654 91.7329102,42.5849609 L87.5336914,42.3896484 C86.9314749,42.3733723 86.4350605,42.3733723 86.0444336,42.3896484 L84.262207,42.5117187 C83.2205352,42.5768232 82.6508794,42.609375 82.5532227,42.609375 L81.3325195,42.8291016 C80.6977507,42.9267583 80.2949227,43.0488274 80.1240234,43.1953125 C79.9531241,43.3417976 79.8269861,43.5940737 79.7456055,43.9521484 L79.6723633,46.2958984 C79.5747065,47.695645 79.5421548,48.4280596 79.574707,48.4931641 C79.6072593,48.6722014 79.6764318,48.8268223 79.7822266,48.9570312 C79.8880214,49.0872402 80.1606423,49.1686196 80.6000977,49.2011719 C81.2511426,49.2825525 82.2032815,49.2662766 83.456543,49.1523437 C84.7098044,49.0384109 86.0810472,48.9529625 87.5703125,48.8959961 C89.0595778,48.8390297 90.2639928,48.7413744 91.1835937,48.6030273 C92.1031947,48.4646803 92.8559541,48.4077147 93.4418945,48.4321289 C94.027835,48.4565431 94.5974907,48.7617158 95.1508789,49.3476562 C95.7042671,49.9335967 95.8833018,50.6415974 95.6879883,51.4716797 C95.6066077,51.780926 95.431642,52.0820298 95.1630859,52.375 C94.8945299,52.6679702 94.3289431,52.8225911 93.4663086,52.8388672 C93.254719,52.8551433 92.9169945,52.8429364 92.453125,52.8022461 C91.9892555,52.7615558 91.0818752,52.7005212 89.730957,52.6191406 C88.3800388,52.53776 87.6232104,52.4889324 87.4604492,52.4726562 C86.8745088,52.4726562 85.8979561,52.5214839 84.5307617,52.6191406 C83.1635674,52.7167974 82.1910836,52.8063147 81.6132812,52.8876953 C81.0354789,52.9690759 80.6000991,53.0219725 80.3071289,53.0463867 C80.0141587,53.0708009 79.8310551,53.1399734 79.7578125,53.2539062 C79.6845699,53.3678391 79.6560872,53.5468738 79.6723633,53.7910156 C79.6723633,54.2792993 79.7171219,54.9262655 79.8066406,55.7319336 C79.8961593,56.5376017 79.9897456,57.5141544 80.0874023,58.6616211 C80.1850591,59.8090878 80.2176108,60.5455713 80.1850586,60.8710937 L80.1850586,60.8710937 Z M109.335449,50.3730469 C110.100427,49.7057258 110.775876,49.1645529 111.361816,48.7495117 C111.947757,48.3344706 112.680171,47.9479185 113.559082,47.5898437 C114.437993,47.231769 115.186683,46.9916998 115.805176,46.8696289 C116.423668,46.747558 117.090979,46.6783855 117.807129,46.6621094 C118.881353,46.6621094 119.943354,46.7801095 120.993164,47.0161133 C122.042974,47.2521171 122.885251,47.5817036 123.52002,48.0048828 C124.154788,48.428062 124.520996,48.9041315 124.618652,49.4331055 C124.716309,49.9620795 124.610516,50.425942 124.30127,50.824707 C123.992023,51.223472 123.65023,51.4391274 123.275879,51.4716797 C122.950356,51.5205081 122.559735,51.4228528 122.104004,51.1787109 L120.687988,50.3974609 C119.564936,49.8603489 118.311693,49.6406245 116.928223,49.7382812 C116.049312,49.8196619 115.158208,50.0271793 114.254883,50.3608398 C113.351558,50.6945004 112.562178,51.1013973 111.886719,51.581543 C111.21126,52.0616886 110.674156,52.5825167 110.275391,53.144043 C109.876626,53.7055692 109.591798,54.2019835 109.420898,54.6333008 C109.249999,55.064618 109.188965,55.5325496 109.237793,56.0371094 L109.408691,58.0146484 L109.652832,60.0654297 C109.750489,60.895512 109.787109,61.4977195 109.762695,61.8720703 C109.738281,62.2464211 109.486005,62.5882146 109.005859,62.8974609 C108.525714,63.2067073 108.074058,63.4020178 107.650879,63.4833984 C107.2277,63.5647791 106.658044,63.6054687 105.941895,63.6054687 C105.209469,63.6217449 104.664227,63.4996758 104.306152,63.2392578 C103.948078,62.9788398 103.793457,62.5312532 103.842285,61.8964844 L104.11084,60.7490234 L104.428223,58.8691406 L104.599121,57.3554687 L104.696777,54.5234375 L104.623535,52.7167969 L104.11084,49.9580078 C104.094564,49.9254556 103.976564,49.7057312 103.756836,49.2988281 C103.537108,48.891925 103.45166,48.501304 103.500488,48.1269531 C103.533041,47.8990874 103.687661,47.6223975 103.964355,47.296875 C104.24105,46.9713525 104.875809,46.7516282 105.868652,46.6376953 C106.861496,46.5237625 107.610186,46.4423831 108.114746,46.3935547 C108.619306,46.3447263 108.989582,46.4261057 109.225586,46.6376953 C109.46159,46.8492849 109.571452,47.0120437 109.555176,47.1259766 L109.115723,49.4941406 C109.08317,49.673178 109.062826,49.8277988 109.054687,49.9580078 C109.046549,50.0882168 109.08317,50.1777341 109.164551,50.2265625 L109.335449,50.3730469 Z M133.26123,56.9648437 C133.456544,57.3717468 133.684406,57.7379541 133.944824,58.0634766 C134.205242,58.388999 134.640622,58.7674132 135.250977,59.1987305 C135.861331,59.6300477 136.658849,60.0043929 137.643555,60.3217773 C138.62826,60.6391617 139.771641,60.8059895 141.07373,60.8222656 C142.945485,60.871094 144.552728,60.6920593 145.895508,60.2851562 C147.238288,59.8782532 148.194496,59.5364597 148.76416,59.2597656 C149.333824,58.9830715 150.025549,58.5598987 150.839355,57.9902344 C151.653162,57.4205701 152.141438,57.0177421 152.304199,56.7817383 C152.46696,56.5457345 152.580892,56.4155275 152.645996,56.3911133 C152.711101,56.3666991 152.79248,56.3463542 152.890137,56.3300781 C153.08545,56.313802 153.264485,56.3341469 153.427246,56.3911133 C153.590007,56.4480797 153.752766,56.5701488 153.915527,56.7573242 C154.078289,56.9444996 154.19222,57.3229138 154.257324,57.8925781 C154.322429,58.4622424 153.996911,59.1783811 153.280762,60.0410156 C152.711097,60.7408889 151.917648,61.3675103 150.900391,61.9208984 C149.883133,62.4742866 148.585132,62.9096664 147.006348,63.2270508 C145.427564,63.5444352 143.563976,63.703125 141.415527,63.703125 C138.876452,63.7194011 136.882657,63.4956078 135.434082,63.0317383 C133.985507,62.5678688 132.728195,61.9209026 131.662109,61.0908203 C130.596023,60.260738 129.879885,59.3818406 129.513672,58.4541016 C129.147459,57.5263625 128.980631,56.4521545 129.013184,55.2314453 C129.045736,54.0432883 129.285805,52.9446665 129.733398,51.9355469 C130.180992,50.9264272 130.974441,49.9498745 132.11377,49.0058594 C133.253098,48.0618442 134.778962,47.3172228 136.691406,46.7719727 C138.603851,46.2267225 140.601715,45.9622395 142.685059,45.9785156 C144.182462,46.0110679 145.708326,46.2226543 147.262695,46.6132812 C148.817065,47.0039082 150.02148,47.5450812 150.875977,48.2368164 C151.730473,48.9285516 152.340818,49.5104143 152.707031,49.9824219 C153.073244,50.4544294 153.374348,50.9874645 153.610352,51.581543 C153.846355,52.1756215 153.976562,52.6028633 154.000977,52.8632812 C154.025391,53.1236992 153.785322,53.5143203 153.280762,54.0351562 C153.004068,54.3281265 152.723309,54.5519198 152.438477,54.706543 C152.153644,54.8611661 151.730472,55.019856 151.168945,55.1826172 C150.607419,55.3453784 149.805832,55.4430337 148.76416,55.4755859 C147.934078,55.5081382 146.880215,55.4959313 145.602539,55.4389648 C144.324863,55.3819984 143.498863,55.3453777 143.124512,55.3291016 C142.326982,55.3291016 141.22836,55.3697913 139.828613,55.4511719 C138.428867,55.5325525 137.35059,55.6098629 136.59375,55.6831055 C135.83691,55.756348 135.189944,55.7848308 134.652832,55.7685547 C134.11572,55.7522786 133.737306,55.7929683 133.517578,55.890625 C133.29785,55.9882817 133.151368,56.1022129 133.078125,56.2324219 C133.004882,56.3626309 133.065917,56.606769 133.26123,56.9648437 L133.26123,56.9648437 Z M149.203613,52.5947266 C149.284994,52.4807937 149.211752,52.1471382 148.983887,51.59375 C148.756021,51.0403618 148.263676,50.5317406 147.506836,50.0678711 C146.749996,49.6040016 145.891444,49.2459323 144.931152,48.9936523 C143.970861,48.7413724 143.116377,48.6070964 142.367676,48.5908203 C141.863116,48.5908203 141.17546,48.6437169 140.304687,48.7495117 C139.433915,48.8553065 138.522466,49.054686 137.570312,49.3476562 C136.618159,49.6406265 135.759607,50.1614546 134.994629,50.9101562 L134.213379,51.7402344 C133.725095,52.2447942 133.497233,52.6272773 133.529785,52.8876953 C133.529785,53.0179043 133.566406,53.1277665 133.639648,53.2172852 C133.712891,53.3068038 133.973305,53.3108728 134.420898,53.2294922 C134.868492,53.1481116 135.629389,53.1236978 136.703613,53.15625 L143.124512,52.9853516 C145.8589,52.9853516 147.547523,52.932455 148.19043,52.8266602 C148.833337,52.7208654 149.171061,52.6435549 149.203613,52.5947266 L149.203613,52.5947266 Z M162.94873,56.9648437 C163.144044,57.3717468 163.371906,57.7379541 163.632324,58.0634766 C163.892742,58.388999 164.328122,58.7674132 164.938477,59.1987305 C165.548831,59.6300477 166.346349,60.0043929 167.331055,60.3217773 C168.31576,60.6391617 169.459141,60.8059895 170.76123,60.8222656 C172.632985,60.871094 174.240228,60.6920593 175.583008,60.2851562 C176.925788,59.8782532 177.881996,59.5364597 178.45166,59.2597656 C179.021324,58.9830715 179.713049,58.5598987 180.526855,57.9902344 C181.340662,57.4205701 181.828938,57.0177421 181.991699,56.7817383 C182.15446,56.5457345 182.268392,56.4155275 182.333496,56.3911133 C182.398601,56.3666991 182.47998,56.3463542 182.577637,56.3300781 C182.77295,56.313802 182.951985,56.3341469 183.114746,56.3911133 C183.277507,56.4480797 183.440266,56.5701488 183.603027,56.7573242 C183.765789,56.9444996 183.87972,57.3229138 183.944824,57.8925781 C184.009929,58.4622424 183.684411,59.1783811 182.968262,60.0410156 C182.398597,60.7408889 181.605148,61.3675103 180.587891,61.9208984 C179.570633,62.4742866 178.272632,62.9096664 176.693848,63.2270508 C175.115064,63.5444352 173.251476,63.703125 171.103027,63.703125 C168.563952,63.7194011 166.570157,63.4956078 165.121582,63.0317383 C163.673007,62.5678688 162.415695,61.9209026 161.349609,61.0908203 C160.283523,60.260738 159.567385,59.3818406 159.201172,58.4541016 C158.834959,57.5263625 158.668131,56.4521545 158.700684,55.2314453 C158.733236,54.0432883 158.973305,52.9446665 159.420898,51.9355469 C159.868492,50.9264272 160.661941,49.9498745 161.80127,49.0058594 C162.940598,48.0618442 164.466462,47.3172228 166.378906,46.7719727 C168.291351,46.2267225 170.289215,45.9622395 172.372559,45.9785156 C173.869962,46.0110679 175.395826,46.2226543 176.950195,46.6132812 C178.504565,47.0039082 179.70898,47.5450812 180.563477,48.2368164 C181.417973,48.9285516 182.028318,49.5104143 182.394531,49.9824219 C182.760744,50.4544294 183.061848,50.9874645 183.297852,51.581543 C183.533855,52.1756215 183.664062,52.6028633 183.688477,52.8632812 C183.712891,53.1236992 183.472822,53.5143203 182.968262,54.0351562 C182.691568,54.3281265 182.410809,54.5519198 182.125977,54.706543 C181.841144,54.8611661 181.417972,55.019856 180.856445,55.1826172 C180.294919,55.3453784 179.493332,55.4430337 178.45166,55.4755859 C177.621578,55.5081382 176.567715,55.4959313 175.290039,55.4389648 C174.012363,55.3819984 173.186363,55.3453777 172.812012,55.3291016 C172.014482,55.3291016 170.91586,55.3697913 169.516113,55.4511719 C168.116367,55.5325525 167.03809,55.6098629 166.28125,55.6831055 C165.52441,55.756348 164.877444,55.7848308 164.340332,55.7685547 C163.80322,55.7522786 163.424806,55.7929683 163.205078,55.890625 C162.98535,55.9882817 162.838868,56.1022129 162.765625,56.2324219 C162.692382,56.3626309 162.753417,56.606769 162.94873,56.9648437 L162.94873,56.9648437 Z M178.891113,52.5947266 C178.972494,52.4807937 178.899252,52.1471382 178.671387,51.59375 C178.443521,51.0403618 177.951176,50.5317406 177.194336,50.0678711 C176.437496,49.6040016 175.578944,49.2459323 174.618652,48.9936523 C173.658361,48.7413724 172.803877,48.6070964 172.055176,48.5908203 C171.550616,48.5908203 170.86296,48.6437169 169.992187,48.7495117 C169.121415,48.8553065 168.209966,49.054686 167.257812,49.3476562 C166.305659,49.6406265 165.447107,50.1614546 164.682129,50.9101562 L163.900879,51.7402344 C163.412595,52.2447942 163.184733,52.6272773 163.217285,52.8876953 C163.217285,53.0179043 163.253906,53.1277665 163.327148,53.2172852 C163.400391,53.3068038 163.660805,53.3108728 164.108398,53.2294922 C164.555992,53.1481116 165.316889,53.1236978 166.391113,53.15625 L172.812012,52.9853516 C175.5464,52.9853516 177.235023,52.932455 177.87793,52.8266602 C178.520837,52.7208654 178.858561,52.6435549 178.891113,52.5947266 L178.891113,52.5947266 Z M196.444824,47.8095703 C196.493653,46.6702417 196.509928,45.827965 196.493652,45.2827148 C196.477376,44.7374647 196.428549,44.2573263 196.347168,43.8422852 C196.265787,43.427244 196.164063,43.0691747 196.041992,42.7680664 C195.919921,42.4669581 195.753094,42.1495785 195.541504,41.815918 C195.329914,41.4822574 195.232259,41.2340503 195.248535,41.0712891 C195.248535,40.8922517 195.390949,40.6603204 195.675781,40.3754883 C195.960613,40.0906561 196.355303,39.8872076 196.859863,39.7651367 C197.364423,39.6430658 197.925941,39.6064451 198.544434,39.6552734 C199.667486,39.7529302 200.672522,40.1394823 201.55957,40.8149414 C202.446619,41.4904005 202.881999,42.1455046 202.865723,42.7802734 C202.849447,42.9104824 202.613446,43.3906208 202.157715,44.2207031 C201.701983,45.0507854 201.40088,45.9296829 201.254395,46.8574219 C201.107909,47.7851609 201.018392,48.436196 200.98584,48.8105469 C200.871907,49.9498755 200.916666,51.4065667 201.120117,53.1806641 C201.323569,54.9547615 201.392741,56.1510386 201.327637,56.7695312 C201.262532,57.3066433 201.156739,57.6687816 201.010254,57.855957 C200.863769,58.0431324 200.627769,58.238443 200.302246,58.4418945 C199.976724,58.6453461 199.614585,58.8243807 199.21582,58.9790039 C198.817055,59.1336271 198.235193,59.0319028 197.470215,58.6738281 C197.160969,58.5436191 196.806968,58.3116879 196.408203,57.9780273 C196.009438,57.6443668 195.769369,57.3066423 195.687988,56.9648437 C195.606608,56.6230452 195.647297,56.0208376 195.810059,55.1582031 C195.858887,54.8652329 195.948404,53.9822665 196.078613,52.5092773 C196.208822,51.0362882 196.282064,50.2102874 196.29834,50.03125 C196.314616,49.8522126 196.363444,49.1116602 196.444824,47.8095703 L196.444824,47.8095703 Z M198.568848,60.3828125 C199.203616,60.3990886 199.826169,60.5659164 200.436523,60.8833008 C201.046878,61.2006852 201.527016,61.6686167 201.876953,62.2871094 C202.22689,62.9056021 202.405924,63.5566372 202.414062,64.2402344 C202.422201,64.9238315 202.255373,65.5585908 201.913574,66.1445312 C201.5555,66.7467478 201.07943,67.2146793 200.485352,67.5483398 C199.891273,67.8820004 199.252445,68.0488281 198.568848,68.0488281 C197.868974,68.0651042 197.226077,67.9064144 196.640137,67.5727539 C196.054196,67.2390934 195.590334,66.7670929 195.248535,66.1567383 C194.906737,65.5463837 194.73584,64.8994175 194.73584,64.2158203 C194.73584,63.5647754 194.910806,62.9259471 195.260742,62.2993164 C195.610679,61.6726857 196.086748,61.1966162 196.688965,60.8710937 C197.291181,60.5455713 197.917803,60.3828125 198.568848,60.3828125 L198.568848,60.3828125 Z" id="path-1"></path>
        <filter x="-50%" y="-50%" width="200%" height="200%" filterUnits="objectBoundingBox" id="filter-2">
            <feOffset dx="0" dy="2" in="SourceAlpha" result="shadowOffsetOuter1"></feOffset>
            <feGaussianBlur stdDeviation="0.5" in="shadowOffsetOuter1" result="shadowBlurOuter1"></feGaussianBlur>
            <feColorMatrix values="0 0 0 0 0   0 0 0 0 0   0 0 0 0 0  0 0 0 1 0" type="matrix" in="shadowBlurOuter1"></feColorMatrix>
        </filter>
    </defs>
    <g id="Page-1" stroke="none" stroke-width="1" fill="none" fill-rule="evenodd">
        <g id="" transform="translate(-47.000000, -110.000000)">
            <g id="Group" transform="translate(48.000000, 110.000000)">
                <g id="Free!Free!-Free!">
                    <use fill="black" fill-opacity="1" filter="url(#filter-2)" xlink:href="#path-1"></use>
                    <use fill="#FFFFFF" fill-rule="evenodd" xlink:href="#path-1"></use>
                </g>
                <text id="" font-family="FZLTHK--GBK1-0, FZLanTingHei-R-GBK" font-size="15" font-weight="normal" letter-spacing="0.5" fill="#000000">
                    <tspan x="86" y="94.5470168"></tspan>
                    <tspan x="179" y="94.5470168"></tspan>
                </text>
            </g>
        </g>
    </g>
</svg>