<?xml version="1.0" standalone="no"?><!DOCTYPE svg PUBLIC "-//W3C//DTD SVG 1.1//EN" "http://www.w3.org/Graphics/SVG/1.1/DTD/svg11.dtd"><svg t="1481685105483" class="icon" style="" viewBox="0 0 1024 1024" version="1.1" xmlns="http://www.w3.org/2000/svg" p-id="13928" xmlns:xlink="http://www.w3.org/1999/xlink" width="32" height="32"><defs><style type="text/css"></style></defs><path d="M511.773 63.946c-246.799 0-447.561 200.822-447.561 447.693s200.764 447.693 447.561 447.693c246.799 0 447.56-200.822 447.56-447.693S758.571 63.946 511.773 63.946z m0 831.143c-211.376 0-383.337-172.043-383.337-383.449 0-211.438 171.96-383.45 383.336-383.45 211.346 0 383.337 172.01 383.337 383.45 0.001 211.408-171.991 383.449-383.336 383.449z" p-id="13929" fill="#d4237a"></path><path d="M464.545 712c0 29.466 23.879 53.353 53.337 53.353 29.458 0 53.337-23.886 53.337-53.353 0-29.465-23.878-53.352-53.337-53.352-29.458 0-53.337 23.887-53.337 53.352zM517.88 257.927c-29.456 0-53.337 23.888-53.337 53.352v227.702c0 29.467 23.881 53.353 53.337 53.353 29.459 0 53.339-23.886 53.339-53.353V311.28c0-29.466-23.88-53.353-53.339-53.353z" p-id="13930" fill="#d4237a"></path></svg>