<?xml version="1.0" standalone="no"?><!DOCTYPE svg PUBLIC "-//W3C//DTD SVG 1.1//EN" "http://www.w3.org/Graphics/SVG/1.1/DTD/svg11.dtd"><svg t="1481684694466" class="icon" style="" viewBox="0 0 1024 1024" version="1.1" xmlns="http://www.w3.org/2000/svg" p-id="2949" xmlns:xlink="http://www.w3.org/1999/xlink" width="32" height="32"><defs><style type="text/css"></style></defs><path d="M474.4 744.8l73.6 0 0 24.8-73.6 0 0-24.8Z" p-id="2950" fill="#d81e06"></path><path d="M510.4 64.8c-248 0-448.8 200.8-448.8 448.8 0 248 200.8 448.8 448.8 448.8 248 0 448.8-200.8 448.8-448.8C959.2 265.6 758.4 64.8 510.4 64.8zM315.2 214.4c0-18.4 15.2-32.8 32.8-32.8l325.6 0c18.4 0 32.8 15.2 32.8 32.8l0 40.8-392 0L314.4 214.4zM315.2 280l392 0 0 389.6-392 0L315.2 280zM706.4 809.6c0 18.4-15.2 32.8-32.8 32.8L348 842.4c-18.4 0-32.8-15.2-32.8-32.8L315.2 693.6l392 0L707.2 809.6z" p-id="2951" fill="#d81e06"></path></svg>