<?xml version="1.0" standalone="no"?><!DOCTYPE svg PUBLIC "-//W3C//DTD SVG 1.1//EN" "http://www.w3.org/Graphics/SVG/1.1/DTD/svg11.dtd"><svg t="1481859651123" class="icon" style="" viewBox="0 0 1024 1024" version="1.1" xmlns="http://www.w3.org/2000/svg" p-id="2957" xmlns:xlink="http://www.w3.org/1999/xlink" width="32" height="32"><defs><style type="text/css"></style></defs><path d="M587.3152 345.2928 368.64 345.2928c-12.8 0-23.1936-10.3424-23.1936-23.1936 0-12.8 10.3424-23.1936 23.1936-23.1936l218.6752 0L587.3152 244.8384 324.7104 244.8384l0 520.704 397.9776 0L722.688 366.7456l-135.424 0L587.264 345.2928zM528.0768 708.4032 368.64 708.4032c-12.8 0-23.1936-10.3424-23.1936-23.2448 0-12.8 10.3424-23.0912 23.1936-23.0912l159.4368 0c12.8 0 23.2448 10.2912 23.2448 23.0912C551.3216 698.0608 540.8768 708.4032 528.0768 708.4032zM678.8608 617.6256 368.64 617.6256c-12.8 0-23.1936-10.4448-23.1936-23.1936 0-12.8512 10.3424-23.1936 23.1936-23.1936l310.2208 0c12.8 0 23.0912 10.3936 23.0912 23.1936C701.952 607.1808 691.6608 617.6256 678.8608 617.6256zM678.8608 526.7968 368.64 526.7968c-12.8 0-23.1936-10.3424-23.1936-23.1936 0-12.8 10.3424-23.1936 23.1936-23.1936l310.2208 0c12.8 0 23.0912 10.3936 23.0912 23.1936C701.952 516.4032 691.6608 526.7968 678.8608 526.7968zM678.8608 389.6832c12.8 0 23.0912 10.3936 23.0912 23.1936s-10.2912 23.1936-23.0912 23.1936L368.64 436.0704c-12.8 0-23.1936-10.3424-23.1936-23.1936 0-12.7488 10.3936-23.1936 23.1936-23.1936L678.8608 389.6832z" p-id="2958" fill="#8a8a8a"></path><path d="M523.7248 13.3632c-275.4048 0-498.6368 223.232-498.6368 498.5856 0 275.3536 223.232 498.6368 498.6368 498.6368 275.3536 0 498.5856-223.2832 498.5856-498.6368C1022.3104 236.5952 799.0784 13.3632 523.7248 13.3632zM769.0752 777.1136c0 19.0976-15.5648 34.7136-34.8672 34.7136L313.088 811.8272c-19.2 0-34.7648-15.616-34.7648-34.7136L278.3232 233.216c0-19.1488 15.5648-34.7648 34.7648-34.7648l294.5536 0 161.4336 161.536L769.0752 777.1136z" p-id="2959" fill="#8a8a8a"></path></svg>