<?xml version="1.0" standalone="no"?><!DOCTYPE svg PUBLIC "-//W3C//DTD SVG 1.1//EN" "http://www.w3.org/Graphics/SVG/1.1/DTD/svg11.dtd"><svg t="1481687599571" class="icon" style="" viewBox="0 0 1024 1024" version="1.1" xmlns="http://www.w3.org/2000/svg" p-id="15484" xmlns:xlink="http://www.w3.org/1999/xlink" width="32" height="32"><defs><style type="text/css"></style></defs><path d="M15.515152 15.515152 15.515152 15.515152 15.515152 15.515152Z" p-id="15485" fill="#13227a"></path><path d="M449.939394 698.181818l124.121212 0 0 124.121212-124.121212 0zM698.181818 263.757576c34.288485 0 62.060606 27.772121 62.060606 62.060606l0 186.181818-186.181818 124.121212-124.121212 0 0-62.060606 186.181818-124.121212 0-62.060606-310.30303 0 0-124.121212 372.363636 0zM512 108.606061c-107.737212 0-209.051152 41.95297-285.230545 118.163394s-118.163394 177.493333-118.163394 285.230545c0 107.737212 41.95297 209.051152 118.163394 285.230545s177.493333 118.163394 285.230545 118.163394c107.737212 0 209.051152-41.95297 285.230545-118.163394s118.163394-177.493333 118.163394-285.230545c0-107.737212-41.95297-209.051152-118.163394-285.230545s-177.493333-118.163394-285.230545-118.163394zM512 15.515152l0 0c274.214788 0 496.484848 222.270061 496.484848 496.484848s-222.270061 496.484848-496.484848 496.484848c-274.214788 0-496.484848-222.270061-496.484848-496.484848s222.270061-496.484848 496.484848-496.484848z" p-id="15486" fill="#13227a"></path></svg>