<?xml version="1.0" standalone="no"?><!DOCTYPE svg PUBLIC "-//W3C//DTD SVG 1.1//EN" "http://www.w3.org/Graphics/SVG/1.1/DTD/svg11.dtd"><svg t="1481684664082" class="icon" style="" viewBox="0 0 1024 1024" version="1.1" xmlns="http://www.w3.org/2000/svg" p-id="2261" xmlns:xlink="http://www.w3.org/1999/xlink" width="32" height="32"><defs><style type="text/css"></style></defs><path d="M339.114667 341.902222c-17.066667 0-30.890667 13.824-30.890667 30.890667 0 17.066667 13.824 30.890667 30.890667 30.890667 17.066667 0 30.890667-13.824 30.890667-30.890667C370.005333 355.726222 356.181333 341.902222 339.114667 341.902222zM502.442667 341.902222c-17.066667 0-30.890667 13.824-30.890667 30.890667 0 17.066667 13.824 30.890667 30.890667 30.890667s30.890667-13.824 30.890667-30.890667C533.333333 355.726222 519.509333 341.902222 502.442667 341.902222zM710.314667 512.568889c-13.482667 0-24.462222 10.922667-24.462222 24.462222 0 13.482667 10.922667 24.462222 24.462222 24.462222 13.482667 0 24.462222-10.922667 24.462222-24.462222C734.776889 523.548444 723.854222 512.568889 710.314667 512.568889zM512 56.888889C260.664889 56.888889 56.888889 260.664889 56.888889 512c0 251.278222 203.776 455.111111 455.111111 455.111111s455.111111-203.832889 455.111111-455.111111C967.111111 260.664889 763.335111 56.888889 512 56.888889zM763.221333 721.635556l17.294222 58.709333-68.949333-34.474667c-21.617778 6.826667-44.999111 10.581333-69.347556 10.581333-89.144889 0-164.920889-49.948444-189.895111-118.272-11.093333 1.365333-22.357333 2.048-33.848889 2.048-28.899556 0-56.547556-4.437333-82.147556-12.515556l-81.692444 40.846222 20.536889-69.518222C219.249778 562.688 183.125333 505.742222 183.125333 441.912889c0-109.226667 105.699556-198.257778 235.292444-198.257778 121.571556 0 222.151111 78.392889 234.097778 178.232889 104.618667 4.608 188.302222 77.880889 188.302222 167.139556C840.874667 642.901333 810.382222 691.029333 763.221333 721.635556zM582.599111 512.568889c-13.482667 0-24.462222 10.922667-24.462222 24.462222 0 13.482667 10.922667 24.462222 24.462222 24.462222s24.462222-10.922667 24.462222-24.462222C607.061333 523.548444 596.081778 512.568889 582.599111 512.568889z" p-id="2262" fill="#14D212"></path></svg>